<?xml version="1.0" encoding="utf-8"?>
<!-- Generator: Adobe Illustrator 26.1.0, SVG Export Plug-In . SVG Version: 6.00 Build 0)  -->
<svg version="1.1" xmlns="http://www.w3.org/2000/svg" xmlns:xlink="http://www.w3.org/1999/xlink" x="0px" y="0px"
	 viewBox="0 0 750 500" style="enable-background:new 0 0 750 500;" xml:space="preserve">
<style type="text/css">
	.st0{fill:#F5F5F5;}
	.st1{fill:#E0E0E0;}
	.st2{fill:#EBEBEB;}
	.st3{fill:#FFFFFF;}
	.st4{display:none;}
	.st5{display:inline;}
	.st6{fill:#263238;}
	.st7{fill:#FF725E;}
	.st8{fill:#455A64;}
	.st9{fill:#FAFAFA;}
	.st10{fill:#FFBE9D;}
	.st11{fill:#EB996E;}
	.st12{opacity:0.6;}
	.st13{opacity:0.3;}
</style>
<g id="Background_Complete">
	<g>
		<g>
			<g>
				<g>
					<g>
						<g>
							<g>
								
									<rect x="585.96" y="82.06" transform="matrix(0.992 -0.1259 0.1259 0.992 -11.6952 81.7989)" class="st0" width="110.75" height="102.75"/>
							</g>
						</g>
					</g>
				</g>
			</g>
			<g>
				<g>
					<path class="st1" d="M649.3,103.97c-4.37,0.55-7.48,4.4-6.94,8.59c0.53,4.19,4.5,7.13,8.87,6.58c4.37-0.55,7.48-4.4,6.95-8.59
						C657.64,106.36,653.67,103.42,649.3,103.97z"/>
				</g>
				<g>
					<path class="st1" d="M682.3,84.58c-26.89,3.39-58.77,7.41-92.84,11.71c0.09-0.12-0.88,1.08-0.47,0.58l0,0.02l0.01,0.05
						l0.01,0.09l0.02,0.18l0.05,0.36l0.09,0.73l0.19,1.45l0.37,2.9c0.24,1.93,0.49,3.84,0.73,5.75c0.49,3.82,0.97,7.6,1.44,11.35
						c0.96,7.49,1.89,14.82,2.8,21.96c1.83,14.27,3.56,27.77,5.15,40.18l0.06,0.44l0.46-0.06c27.82-3.62,51.05-6.65,67.39-8.78
						c8.06-1.07,14.42-1.92,18.81-2.5c2.12-0.29,3.76-0.52,4.93-0.68c0.52-0.08,0.93-0.14,1.25-0.18c0.28-0.04,0.41-0.07,0.4-0.08
						c-0.01-0.01-0.16,0-0.46,0.03c-0.33,0.04-0.76,0.08-1.3,0.14c-1.19,0.14-2.87,0.33-5.03,0.59c-4.42,0.53-10.83,1.31-18.95,2.29
						c-6.01,0.74-12.97,1.6-20.75,2.56l46.43-5.89c0.03,0.17,0.05,0.28,0.06,0.28c0.01,0.01,0-0.12-0.02-0.37
						c-0.03-0.29-0.07-0.67-0.12-1.15c-0.12-1.07-0.3-2.57-0.52-4.51c-0.48-4.02-1.18-9.84-2.07-17.23
						c-1.84-14.96-4.47-36.27-7.61-61.85l-0.05-0.43L682.3,84.58z M665.98,135.9l-12.85,19.72l-29.12-30.37l-23.38,55.46
						c-1.52-12.12-3.17-25.25-4.92-39.12c-0.9-7.14-1.83-14.48-2.77-21.97c-0.47-3.75-0.95-7.53-1.44-11.35
						c-0.24-1.91-0.48-3.83-0.73-5.75l-0.37-2.9l-0.18-1.45l-0.09-0.73l-0.03-0.22c33.68-4.3,65.2-8.32,91.86-11.73
						c3.3,25.25,6.05,46.29,7.98,61.09c0.99,7.42,1.77,13.26,2.31,17.3c0.27,1.97,0.48,3.5,0.63,4.58c0.07,0.49,0.13,0.88,0.18,1.19
						c0.01,0.04,0.01,0.06,0.02,0.1L665.98,135.9z"/>
				</g>
			</g>
		</g>
	</g>
	<g>
		<g>
			<g>
				<g>
					<g>
						<g>
							<g>
								
									<rect x="52.7" y="359.83" transform="matrix(0.9869 0.1613 -0.1613 0.9869 65.1423 -9.6644)" class="st0" width="78.78" height="73.08"/>
							</g>
						</g>
					</g>
				</g>
			</g>
			<g>
				<g>
					<path class="st1" d="M103.48,377.89c-3.09-0.51-5.99,1.49-6.47,4.45c-0.48,2.96,1.63,5.77,4.72,6.28
						c3.09,0.51,5.99-1.49,6.47-4.45C108.68,381.21,106.57,378.4,103.48,377.89z"/>
				</g>
				<g>
					<path class="st1" d="M129.91,371.34c-19.02-3.12-41.57-6.83-65.68-10.79c0.09-0.07-0.82,0.56-0.44,0.3l0,0.02l-0.01,0.03
						l-0.01,0.06l-0.02,0.13l-0.04,0.26l-0.08,0.51l-0.17,1.03l-0.33,2.05c-0.22,1.36-0.44,2.72-0.66,4.07
						c-0.44,2.7-0.88,5.38-1.31,8.03c-0.86,5.3-1.71,10.49-2.53,15.54c-1.64,10.1-3.19,19.66-4.61,28.44l-0.05,0.31l0.32,0.05
						c19.7,3.15,36.16,5.79,47.73,7.64c5.71,0.9,10.22,1.61,13.34,2.1c1.5,0.23,2.67,0.41,3.5,0.53c0.37,0.05,0.66,0.09,0.89,0.13
						c0.2,0.03,0.3,0.04,0.29,0.03c0-0.01-0.11-0.03-0.32-0.07c-0.23-0.04-0.53-0.1-0.92-0.17c-0.84-0.15-2.02-0.35-3.55-0.62
						c-3.13-0.53-7.65-1.3-13.38-2.27c-4.25-0.71-9.17-1.53-14.67-2.45l32.86,5.37c-0.01,0.12-0.02,0.2-0.02,0.2
						c0.01,0.01,0.03-0.08,0.06-0.26c0.04-0.21,0.09-0.47,0.15-0.81c0.13-0.75,0.32-1.81,0.56-3.18c0.48-2.84,1.18-6.95,2.07-12.17
						c1.77-10.58,4.29-25.64,7.31-43.72l0.05-0.3L129.91,371.34z M108.4,403.04l-12.75,10.85l-13.71-26.6l-27.16,33.09
						c1.41-8.58,2.94-17.86,4.56-27.67c0.83-5.05,1.68-10.24,2.55-15.54c0.43-2.65,0.87-5.33,1.32-8.03
						c0.22-1.35,0.44-2.71,0.67-4.07l0.33-2.05l0.17-1.03l0.08-0.51l0.03-0.15c23.84,3.88,46.15,7.51,65.01,10.57
						c-2.85,17.89-5.23,32.79-6.91,43.27c-0.82,5.26-1.47,9.4-1.92,12.26c-0.21,1.4-0.38,2.48-0.49,3.25
						c-0.05,0.35-0.09,0.63-0.12,0.84c0,0.03-0.01,0.04-0.01,0.07L108.4,403.04z"/>
				</g>
			</g>
		</g>
	</g>
	<g>
		<g>
			<g>
				<path class="st2" d="M54.06,111.5c0,0-6.63,2.69,1.02,16.76c7.65,14.08,12.87,21.01,12.87,21.01s1.38,3.28-1.4,3.86
					c-2.77,0.59-8.94-0.23-10.09,3.21c-1.2,3.57,1.46,6.84,6.75,9.63c5.29,2.79,16.64,9.34,17.67,9.93c1.01,0.58,2.04,2.1,0.21,2.8
					c-1.83,0.7-15.6,2.5-14.35,8.98c1.24,6.48,17.25,11.84,18.99,12.46c1.74,0.62,2.17,1.34,2.05,2.29c-0.12,0.95-4.8,1.12-8.7,1.79
					c-3.9,0.67-8.29,2.13-7.26,5.81c1.03,3.68,10.62,11.22,33.49,12.86l10.64,0.07l5.55-9.13c10.7-20.27,9.37-32.4,6.79-35.22
					c-2.58-2.82-6.14,0.14-8.78,3.09c-2.63,2.95-5.25,6.84-6.12,6.43c-0.87-0.4-1.25-1.15-0.86-2.95c0.39-1.8,4.31-18.22-0.53-22.71
					c-4.84-4.48-13.65,6.25-15.21,7.43c-1.56,1.18-2.3-0.5-2.27-1.66c0.04-1.18,0.49-14.28,0.91-20.25
					c0.43-5.96-0.95-9.95-4.61-10.82c-3.53-0.84-6.1,4.82-8.06,6.87c-1.97,2.04-4.02-0.86-4.02-0.86s-3.12-8.1-11.02-22.04
					c-7.9-13.93-13.81-9.59-13.81-9.59"/>
			</g>
		</g>
		<g>
			<g>
				<g>
					<path class="st1" d="M116.57,225.47c-5.76-10.26-15.7-28.66-24.31-44.41c-8.61-15.75-16.42-30-22.13-40.29
						c-2.86-5.13-5.17-9.29-6.78-12.17c-0.79-1.43-1.41-2.54-1.84-3.31c-0.2-0.37-0.36-0.66-0.47-0.87c-0.1-0.2-0.15-0.3-0.15-0.3
						s0.07,0.09,0.18,0.28c0.12,0.2,0.29,0.49,0.5,0.85c0.44,0.76,1.08,1.87,1.89,3.28c1.64,2.85,3.99,6.99,6.87,12.12
						c5.76,10.26,13.61,24.49,22.22,40.24c8.61,15.75,18.52,34.17,24.23,44.46"/>
				</g>
			</g>
		</g>
		<g>
			<g>
				<g>
					<path class="st1" d="M65.04,157.84c0.01-0.02,0.27,0.05,0.75,0.19c0.48,0.14,1.16,0.36,1.99,0.64
						c1.68,0.57,3.97,1.41,6.49,2.38c2.48,0.97,4.72,1.85,6.43,2.52c0.77,0.3,1.43,0.55,1.95,0.75c0.46,0.17,0.71,0.28,0.71,0.3
						s-0.27-0.04-0.75-0.18c-0.47-0.14-1.16-0.36-1.99-0.65c-1.67-0.58-3.95-1.45-6.47-2.43c-2.48-0.95-4.73-1.81-6.45-2.47
						c-0.78-0.29-1.43-0.54-1.96-0.74C65.28,157.97,65.03,157.86,65.04,157.84z"/>
				</g>
			</g>
		</g>
		<g>
			<g>
				<g>
					<path class="st1" d="M84.06,163.92c-0.09-0.03,1.44-4.84,3.41-10.73c1.97-5.9,3.63-10.66,3.72-10.63s-1.44,4.83-3.41,10.74
						C85.81,159.19,84.15,163.95,84.06,163.92z"/>
				</g>
			</g>
		</g>
		<g>
			<g>
				<g>
					<path class="st1" d="M96.19,188.7c-0.02-0.01,0.13-0.25,0.41-0.67c0.33-0.47,0.73-1.06,1.22-1.76c1.02-1.48,2.43-3.54,3.9-5.87
						c1.47-2.32,2.73-4.47,3.63-6.03c0.42-0.74,0.78-1.35,1.07-1.85c0.25-0.44,0.4-0.67,0.43-0.66c0.02,0.01-0.09,0.27-0.31,0.72
						c-0.22,0.45-0.55,1.11-0.98,1.9c-0.85,1.59-2.08,3.77-3.56,6.1c-1.47,2.33-2.91,4.37-3.99,5.82c-0.54,0.72-0.98,1.3-1.3,1.7
						C96.4,188.51,96.21,188.72,96.19,188.7z"/>
				</g>
			</g>
		</g>
		<g>
			<g>
				<g>
					<path class="st1" d="M77.78,186.99c0-0.02,0.26-0.02,0.73-0.01c0.54,0.03,1.2,0.06,1.97,0.11c1.66,0.1,3.96,0.27,6.5,0.47
						c2.54,0.2,4.83,0.41,6.49,0.57c0.77,0.08,1.43,0.15,1.96,0.21c0.46,0.06,0.72,0.1,0.72,0.12c0,0.02-0.26,0.02-0.73,0.01
						c-0.54-0.03-1.2-0.06-1.97-0.11c-1.66-0.1-3.96-0.27-6.5-0.47c-2.54-0.2-4.83-0.4-6.49-0.57c-0.77-0.08-1.43-0.15-1.96-0.21
						C78.03,187.06,77.77,187.02,77.78,186.99z"/>
				</g>
			</g>
		</g>
		<g>
			<g>
				<g>
					<path class="st1" d="M85.71,210.24c0-0.02,0.33-0.02,0.93,0c0.66,0.03,1.51,0.07,2.53,0.13c2.13,0.12,5.08,0.31,8.33,0.54
						c3.25,0.23,6.2,0.45,8.33,0.63c1.02,0.09,1.86,0.17,2.52,0.23c0.59,0.06,0.92,0.11,0.92,0.13c0,0.02-0.33,0.02-0.93,0
						c-0.66-0.03-1.51-0.07-2.53-0.13c-2.13-0.12-5.08-0.31-8.33-0.54c-3.25-0.23-6.2-0.45-8.32-0.63
						c-1.02-0.09-1.86-0.17-2.52-0.23C86.03,210.3,85.71,210.26,85.71,210.24z"/>
				</g>
			</g>
		</g>
		<g>
			<g>
				<g>
					<path class="st1" d="M108.71,211.7c-0.02-0.01,0.16-0.32,0.5-0.86c0.38-0.59,0.87-1.36,1.46-2.28c1.23-1.93,2.92-4.6,4.7-7.6
						c1.79-3,3.33-5.75,4.44-7.76c0.53-0.96,0.97-1.76,1.31-2.37c0.31-0.56,0.49-0.86,0.51-0.85c0.02,0.01-0.12,0.33-0.4,0.91
						c-0.28,0.58-0.69,1.41-1.22,2.42c-1.05,2.03-2.57,4.81-4.36,7.82c-1.79,3.01-3.51,5.66-4.79,7.56
						c-0.64,0.95-1.17,1.71-1.55,2.23C108.95,211.43,108.73,211.71,108.71,211.7z"/>
				</g>
			</g>
		</g>
	</g>
	<g>
		<g>
			<g>
				<path class="st1" d="M708.43,312.38H552.61c-4.34,0-7.87-3.52-7.87-7.87v-90.59c0-4.34,3.52-7.87,7.87-7.87h155.82
					c4.34,0,7.87,3.52,7.87,7.87v90.59C716.3,308.85,712.77,312.38,708.43,312.38z"/>
			</g>
		</g>
		<g>
			<g>
				<g>
					
						<ellipse transform="matrix(0.7071 -0.7071 0.7071 0.7071 0.3615 522.1913)" class="st2" cx="630.52" cy="260.66" rx="13.07" ry="13.07"/>
				</g>
			</g>
			<g>
				<g>
					<path class="st3" d="M627.37,264.48v-7.71c0-0.38,0.4-0.61,0.73-0.43l6.89,3.88c0.33,0.19,0.33,0.67,0,0.86l-6.89,3.83
						C627.77,265.09,627.37,264.86,627.37,264.48z"/>
				</g>
			</g>
		</g>
		<g>
			<g>
				<path class="st3" d="M554.55,300.16v0.28h-1.29v-0.22l0.7-0.66c0.17-0.16,0.2-0.27,0.2-0.36c0-0.16-0.11-0.25-0.33-0.25
					c-0.17,0-0.31,0.06-0.41,0.18l-0.23-0.17c0.14-0.18,0.38-0.29,0.67-0.29c0.38,0,0.63,0.19,0.63,0.5c0,0.17-0.05,0.33-0.29,0.55
					l-0.47,0.45H554.55z"/>
			</g>
			<g>
				<path class="st3" d="M554.73,299.29c0-0.12,0.09-0.21,0.21-0.21c0.11,0,0.21,0.08,0.21,0.21c0,0.12-0.09,0.21-0.21,0.21
					C554.82,299.5,554.73,299.41,554.73,299.29z M554.73,300.25c0-0.13,0.09-0.21,0.21-0.21c0.11,0,0.21,0.08,0.21,0.21
					c0,0.12-0.09,0.21-0.21,0.21C554.82,300.45,554.73,300.37,554.73,300.25z"/>
			</g>
			<g>
				<path class="st3" d="M555.95,298.68v1.75h-0.33v-1.48h-0.37v-0.27H555.95z"/>
			</g>
			<g>
				<path class="st3" d="M557.86,300.04h-0.31v0.4h-0.32v-0.4h-0.96v-0.23l0.86-1.13h0.35l-0.81,1.08h0.57v-0.35h0.31v0.35h0.31
					V300.04z"/>
			</g>
		</g>
		<g>
			<g>
				<rect x="560.72" y="299.29" class="st3" width="132.86" height="0.7"/>
			</g>
		</g>
		<g>
			<g>
				<rect x="560.62" y="298.56" class="st2" width="41.52" height="1.88"/>
			</g>
		</g>
		<g>
			<g>
				<path class="st2" d="M603.48,299.64c0,1.12-0.91,2.02-2.02,2.02s-2.02-0.9-2.02-2.02c0-1.12,0.9-2.02,2.02-2.02
					S603.48,298.53,603.48,299.64z"/>
			</g>
		</g>
		<g>
			<g>
				<path class="st3" d="M696.93,299.62c0,0.35-0.28,0.57-0.64,0.57c-0.48,0-0.76-0.31-0.76-0.87c0-0.6,0.35-0.93,0.86-0.93
					c0.18,0,0.34,0.04,0.46,0.11l-0.12,0.25c-0.1-0.06-0.21-0.09-0.33-0.09c-0.33,0-0.54,0.21-0.54,0.6v0
					c0.1-0.12,0.27-0.18,0.47-0.18C696.67,299.08,696.93,299.29,696.93,299.62z M696.62,299.64c0-0.18-0.14-0.3-0.35-0.3
					c-0.21,0-0.36,0.13-0.36,0.3c0,0.16,0.13,0.29,0.36,0.29C696.48,299.93,696.62,299.82,696.62,299.64z"/>
			</g>
			<g>
				<path class="st3" d="M697.09,299.02c0-0.12,0.09-0.21,0.21-0.21c0.11,0,0.21,0.08,0.21,0.21c0,0.12-0.09,0.21-0.21,0.21
					C697.18,299.23,697.09,299.14,697.09,299.02z M697.09,299.98c0-0.13,0.09-0.21,0.21-0.21c0.11,0,0.21,0.08,0.21,0.21
					c0,0.12-0.09,0.21-0.21,0.21C697.18,300.18,697.09,300.1,697.09,299.98z"/>
			</g>
			<g>
				<path class="st3" d="M697.71,299.29c0-0.58,0.32-0.9,0.73-0.9c0.42,0,0.73,0.33,0.73,0.9c0,0.58-0.32,0.9-0.73,0.9
					C698.02,300.19,697.71,299.87,697.71,299.29z M698.85,299.29c0-0.42-0.17-0.62-0.41-0.62c-0.24,0-0.4,0.19-0.4,0.62
					c0,0.42,0.16,0.62,0.4,0.62C698.68,299.91,698.85,299.71,698.85,299.29z"/>
			</g>
			<g>
				<path class="st3" d="M699.39,299.29c0-0.58,0.32-0.9,0.73-0.9c0.42,0,0.73,0.33,0.73,0.9c0,0.58-0.32,0.9-0.73,0.9
					C699.71,300.19,699.39,299.87,699.39,299.29z M700.53,299.29c0-0.42-0.17-0.62-0.41-0.62c-0.24,0-0.4,0.19-0.4,0.62
					c0,0.42,0.16,0.62,0.4,0.62C700.36,299.91,700.53,299.71,700.53,299.29z"/>
			</g>
		</g>
		<g>
			<g>
				<polygon class="st3" points="703.73,299.18 703.03,299.18 703.03,297.39 704.82,297.39 704.82,298.09 703.73,298.09 				"/>
			</g>
		</g>
		<g>
			<g>
				<polygon class="st3" points="704.82,301.51 703.03,301.51 703.03,299.72 703.73,299.72 703.73,300.81 704.82,300.81 				"/>
			</g>
		</g>
		<g>
			<g>
				<polygon class="st3" points="707.65,301.51 705.86,301.51 705.86,300.81 706.95,300.81 706.95,299.71 707.65,299.71 				"/>
			</g>
		</g>
		<g>
			<g>
				<polygon class="st3" points="707.65,299.18 706.95,299.18 706.95,298.09 705.86,298.09 705.86,297.39 707.65,297.39 				"/>
			</g>
		</g>
		<g>
			<g>
				<g>
					<path class="st3" d="M684.99,216.39c-0.06-0.05,1.32-0.14,3.61-0.2l0.19,0l0,0.2c0.01,1.37,0.03,2.92,0.05,4.59l0.01,0.59
						l-0.42-0.42c-0.15-0.15-0.32-0.32-0.48-0.48c-0.42-0.42-0.83-0.83-1.22-1.23l0.33,0.01c-0.68,0.6-1.32,1.16-1.92,1.69
						l-0.36,0.32l0.01-0.48c0.02-1.42,0.07-2.6,0.11-3.39C684.93,216.79,684.96,216.36,684.99,216.39c0.03,0.03,0.06,0.52,0.11,1.33
						c0.04,0.81,0.09,1.93,0.11,3.26l-0.36-0.16c0.59-0.54,1.22-1.12,1.89-1.73l0.17-0.15l0.16,0.16c0.4,0.4,0.81,0.81,1.23,1.22
						c0.16,0.16,0.33,0.33,0.48,0.48l-0.42,0.17c0.02-1.67,0.03-3.22,0.05-4.59l0.2,0.2C686.51,216.53,685.06,216.43,684.99,216.39z
						"/>
				</g>
			</g>
		</g>
		<g>
			<g>
				<g>
					<path class="st3" d="M698.28,216.96c0.05-0.02-0.28,0.38-0.88,1.12c-0.59,0.73-1.48,1.83-2.57,3.06l-0.4,0.46l0-0.61
						c0-0.72-0.01-1.48-0.01-2.28l0-0.22l0.07,0.18c-0.56-0.54-1.1-1.07-1.6-1.56l-0.42-0.41l0.58,0.01
						c1.59,0.02,2.95,0.1,3.86,0.16C697.84,216.91,698.33,216.94,698.28,216.96c-0.05,0.02-0.64,0.04-1.58,0.09
						c-0.94,0.04-2.19,0.11-3.65,0.11l0.16-0.4c0.51,0.49,1.05,1,1.62,1.54l0.07,0.07l0,0.1v0.22c0,0.79-0.01,1.56-0.01,2.28
						l-0.41-0.16c1.01-1.11,1.93-2.02,2.62-2.71C697.81,217.43,698.23,216.98,698.28,216.96z"/>
				</g>
			</g>
		</g>
		<g>
			<g>
				<g>
					<path class="st3" d="M698.28,216.96c0.05,0.12-0.71,0.57-1.71,0.98c-1,0.42-1.85,0.66-1.9,0.53c-0.05-0.12,0.71-0.56,1.71-0.98
						C697.38,217.08,698.23,216.84,698.28,216.96z"/>
				</g>
			</g>
		</g>
		<g>
			<g>
				<g>
					<path class="st3" d="M704.76,216.39c0-0.03,0.23-0.08,0.65-0.01c0.41,0.07,1.03,0.31,1.52,0.92c0.5,0.59,0.8,1.6,0.44,2.6
						c-0.32,0.99-1.38,1.87-2.61,1.85c-1.24,0.01-2.29-0.86-2.62-1.85c-0.35-1-0.05-2.01,0.44-2.6c0.49-0.61,1.11-0.85,1.52-0.92
						C704.53,216.31,704.76,216.36,704.76,216.39c0,0.04-0.23,0.05-0.6,0.17c-0.37,0.12-0.9,0.39-1.3,0.94
						c-0.4,0.54-0.61,1.41-0.3,2.24c0.29,0.82,1.17,1.53,2.19,1.52c1.02,0.01,1.9-0.7,2.19-1.52c0.32-0.83,0.1-1.7-0.3-2.24
						c-0.4-0.56-0.93-0.82-1.3-0.94C704.99,216.44,704.76,216.43,704.76,216.39z"/>
				</g>
			</g>
		</g>
		<g>
			<g>
				<g>
					<path class="st3" d="M705.63,220.04c-0.09,0.09-0.66-0.32-1.26-0.92l-0.07-0.07v-0.1c0,0,0-0.01,0-0.01
						c0-0.86,0.11-1.56,0.24-1.56c0.13,0,0.24,0.7,0.24,1.56c0,0.01,0,0.01,0,0.01l-0.07-0.17
						C705.32,219.38,705.73,219.94,705.63,220.04z"/>
				</g>
			</g>
		</g>
		<g>
			<g>
				<g>
					<path class="st3" d="M642.62,219.87c0,0.14-17.63,0.24-39.37,0.24c-21.75,0-39.38-0.11-39.38-0.24
						c0-0.13,17.63-0.24,39.38-0.24C624.99,219.62,642.62,219.73,642.62,219.87z"/>
				</g>
			</g>
		</g>
		<g>
			<g>
				<circle class="st3" cx="557.05" cy="219.87" r="3.11"/>
			</g>
		</g>
	</g>
</g>
<g id="Background_Simple" class="st4">
	<g class="st5">
		<path class="st0" d="M684.27,306.36l-1.37-2.26c-11.56-19.05-32.46-30.53-54.5-29.14c-2.83,0.18-5.65,0.56-8.44,1.16
			c-20.04,4.29-37.47,19.44-44.7,38.85c-4.25,11.41-5.44,24.55-13.5,33.61c-10.5,11.79-28.32,12.16-43.98,11.67
			c-15.67-0.49-33.5-0.07-43.94,11.76c-6.54,7.41-8.62,17.95-8.09,27.88c1.4,26.28,19.71,49.78,43,61.46
			c23.29,11.68,50.71,12.73,76.2,7.59c35.71-7.2,69.67-26.97,90.08-57.5C695.44,380.91,700.6,339.32,684.27,306.36z"/>
	</g>
	<g class="st5">
		<path class="st0" d="M35.18,193.43l1.48,1.91c12.46,16.1,32.63,24.37,52.49,20.83c2.55-0.46,5.07-1.1,7.54-1.92
			c17.75-5.96,32.01-21.52,36.57-39.89c2.68-10.8,2.4-22.85,8.79-31.91c8.31-11.79,24.45-13.97,38.73-15.14
			c14.28-1.18,30.42-3.4,38.68-15.22c5.17-7.41,5.97-17.19,4.47-26.15c-3.98-23.72-23.04-43.16-45.39-51.36
			c-22.35-8.2-47.36-6.31-69.97,0.98C76.88,45.78,48.09,67.24,32.72,97.07S16.95,165.2,35.18,193.43z"/>
	</g>
	<g class="st5">
		<circle class="st0" cx="675.98" cy="205.87" r="37.09"/>
	</g>
</g>
<g id="Web">
	<g>
		<g>
			<g>
				<rect x="112.29" y="44.39" class="st3" width="505.78" height="364.08"/>
			</g>
			<g>
				<rect x="111.66" y="44.39" class="st1" width="505.78" height="26.91"/>
			</g>
			<g>
				<path class="st6" d="M129.57,58.33c0,1.93-1.48,3.5-3.3,3.5c-1.82,0-3.3-1.57-3.3-3.5c0-1.93,1.48-3.5,3.3-3.5
					C128.09,54.83,129.57,56.39,129.57,58.33z"/>
			</g>
			<g>
				<path class="st6" d="M141.85,58.33c0,1.93-1.48,3.5-3.3,3.5c-1.82,0-3.3-1.57-3.3-3.5c0-1.93,1.48-3.5,3.3-3.5
					C140.37,54.83,141.85,56.39,141.85,58.33z"/>
			</g>
			<g>
				<path class="st6" d="M154.12,58.33c0,1.93-1.48,3.5-3.3,3.5c-1.82,0-3.3-1.57-3.3-3.5c0-1.93,1.48-3.5,3.3-3.5
					C152.65,54.83,154.12,56.39,154.12,58.33z"/>
			</g>
			<g>
				<g>
					<g>
						<g>
							<path class="st6" d="M329.73,100.28c0,0.19-11.05,0.35-24.67,0.35c-13.63,0-24.67-0.15-24.67-0.35
								c0-0.19,11.04-0.35,24.67-0.35C318.68,99.93,329.73,100.08,329.73,100.28z"/>
						</g>
					</g>
				</g>
				<g>
					<g>
						<g>
							<path class="st6" d="M395.36,100.28c0,0.19-11.05,0.35-24.67,0.35c-13.63,0-24.67-0.15-24.67-0.35
								c0-0.19,11.04-0.35,24.67-0.35C384.31,99.93,395.36,100.08,395.36,100.28z"/>
						</g>
					</g>
				</g>
				<g>
					<g>
						<g>
							<path class="st6" d="M460.99,100.28c0,0.19-11.05,0.35-24.67,0.35c-13.63,0-24.67-0.15-24.67-0.35
								c0-0.19,11.04-0.35,24.67-0.35C449.94,99.93,460.99,100.08,460.99,100.28z"/>
						</g>
					</g>
				</g>
				<g>
					<g>
						<g>
							<path class="st6" d="M527.2,100.28c0,0.19-11.05,0.35-24.67,0.35c-13.63,0-24.67-0.15-24.67-0.35
								c0-0.19,11.04-0.35,24.67-0.35C516.16,99.93,527.2,100.08,527.2,100.28z"/>
						</g>
					</g>
				</g>
				<g>
					<g>
						<path class="st6" d="M584.72,108.59c0-0.04,0.42-0.02,1.18-0.21c0.74-0.2,1.87-0.66,2.84-1.84c0.47-0.58,0.91-1.34,1.13-2.25
							c0.25-0.9,0.18-1.94,0.17-3.07c-0.13-2.19,0.49-5.04-1.38-7.12c-0.85-1.01-2.12-1.73-3.51-1.83c-1.42-0.04-2.97,0-4.53,0
							c-3.15,0.01-6.51,0.02-10.04,0.03c-7.08,0.01-14.85,0.02-23.01,0.03c-1.93-0.01-3.77,1.21-4.61,2.99
							c-0.44,0.89-0.6,1.86-0.57,2.88c0,1.04,0,2.07,0,3.08c0.01,1.04-0.07,2.03,0.18,2.92c0.22,0.92,0.69,1.74,1.29,2.41
							c0.61,0.66,1.37,1.15,2.19,1.42c0.82,0.28,1.67,0.25,2.57,0.25c7.06,0.03,13.43,0.05,18.8,0.07
							c5.31,0.05,9.62,0.08,12.67,0.11c1.45,0.03,2.6,0.05,3.45,0.06c0.36,0.01,0.66,0.03,0.9,0.03
							C584.62,108.56,584.72,108.57,584.72,108.59c0,0.01-0.1,0.02-0.31,0.04c-0.24,0.01-0.53,0.02-0.9,0.03
							c-0.84,0.02-1.99,0.04-3.45,0.06c-3.05,0.03-7.36,0.06-12.67,0.11c-5.37,0.02-11.73,0.05-18.8,0.07
							c-0.86,0-1.83,0.05-2.75-0.26c-0.91-0.3-1.77-0.84-2.46-1.58c-0.68-0.75-1.21-1.67-1.46-2.7c-0.15-0.51-0.19-1.04-0.21-1.58
							c0-0.51,0-1.01,0-1.52c0-1.02,0-2.05,0-3.08c-0.04-1.05,0.15-2.21,0.64-3.19c0.94-2,3.01-3.39,5.19-3.37
							c8.16,0.01,15.93,0.02,23.01,0.03c3.53,0.01,6.89,0.02,10.04,0.03c1.58,0.02,3.07-0.01,4.57,0.04
							c1.53,0.13,2.9,0.93,3.82,2.04c0.92,1.11,1.41,2.51,1.42,3.83c-0.01,1.28-0.01,2.48-0.02,3.61c-0.02,1.11,0.05,2.2-0.24,3.16
							c-0.25,0.96-0.73,1.74-1.24,2.34c-1.04,1.21-2.23,1.64-3,1.8C585.14,108.66,584.72,108.59,584.72,108.59z"/>
					</g>
				</g>
			</g>
			<g>
				<path class="st1" d="M295.22,226.91H159.26c-4.75,0-8.61-3.85-8.61-8.61v-14.2c0-4.75,3.85-8.61,8.61-8.61h135.96
					c4.75,0,8.61,3.85,8.61,8.61v14.2C303.82,223.06,299.97,226.91,295.22,226.91z"/>
			</g>
			<g>
				<path class="st6" d="M111.66,44.39c2.28,0,206.71-0.1,505.78-0.26l0.26,0v0.26c0.01,109.86,0.02,233.6,0.03,364.04v0.04v0.28
					h-0.28c-189.24-0.02-364.34-0.04-505.78-0.05h-0.23l0-0.23C111.57,187.5,111.66,46.29,111.66,44.39
					c0,1.9,0.09,143.11,0.23,364.08l-0.23-0.23c141.45-0.01,316.55-0.03,505.78-0.05l-0.28,0.28v-0.04
					c0.01-130.44,0.02-254.18,0.03-364.04l0.26,0.26C318.37,44.5,113.94,44.39,111.66,44.39z"/>
			</g>
		</g>
		<g>
			<g>
				<g>
					<path class="st7" d="M574.31,260.74c0,0-0.01-0.64-0.02-1.85c0-1.22-0.01-3.03-0.02-5.39c-0.01-4.73-0.03-11.68-0.05-20.61
						c-0.03-17.85-0.06-43.59-0.11-75.22l0.2,0.2c-48.49,0.02-111.99,0.04-181.28,0.06h-0.01l0.26-0.26
						c-0.01,36.46-0.01,71.32-0.02,103.08l-0.24-0.24c53.08,0.05,98.37,0.09,130.4,0.12c16.03,0.03,28.74,0.05,37.45,0.07
						c4.35,0.01,7.7,0.02,9.98,0.03c1.13,0.01,1.99,0.01,2.58,0.01C574.01,260.73,574.31,260.74,574.31,260.74s-0.28,0.01-0.85,0.01
						c-0.58,0-1.43,0.01-2.55,0.01c-2.26,0.01-5.6,0.02-9.93,0.03c-8.7,0.02-21.39,0.04-37.39,0.07
						c-32.07,0.03-77.42,0.07-130.57,0.12l-0.24,0v-0.24c-0.01-31.75-0.01-66.61-0.02-103.08l0-0.26h0.26h0.01
						c69.28,0.02,132.78,0.04,181.28,0.06l0.2,0l0,0.2c-0.04,31.68-0.08,57.47-0.11,75.35c-0.02,8.91-0.04,15.85-0.05,20.57
						c-0.01,2.34-0.02,4.14-0.02,5.35C574.33,260.13,574.31,260.74,574.31,260.74z"/>
				</g>
			</g>
			<g>
				<g>
					<path class="st7" d="M570.39,157.52c0,0-0.14,0.11-0.43,0.3c-0.31,0.2-0.74,0.47-1.3,0.83c-1.17,0.73-2.86,1.78-5.03,3.14
						c-4.37,2.72-10.72,6.61-18.59,11.38c-15.74,9.54-37.6,22.53-61.98,36.47c-24.38,13.95-46.66,26.22-62.85,34.97
						c-8.1,4.37-14.66,7.88-19.22,10.28c-2.26,1.19-4.03,2.11-5.25,2.75c-0.59,0.3-1.04,0.54-1.37,0.7
						c-0.31,0.16-0.48,0.22-0.48,0.22s0.15-0.1,0.45-0.27c0.32-0.18,0.77-0.43,1.35-0.75c1.21-0.66,2.96-1.61,5.2-2.84
						c4.54-2.47,11.07-6.03,19.14-10.42c16.15-8.83,38.39-21.15,62.77-35.1c24.37-13.94,46.26-26.87,62.04-36.33
						c7.87-4.74,14.25-8.57,18.67-11.24c2.19-1.32,3.9-2.34,5.08-3.05c0.57-0.34,1.01-0.6,1.33-0.78
						C570.23,157.6,570.39,157.52,570.39,157.52z"/>
				</g>
			</g>
			<g>
				<g>
					<path class="st7" d="M572.22,260.73c-0.07,0.12-39.85-22.65-88.83-50.87c-49-28.22-88.65-51.2-88.57-51.32
						c0.07-0.12,39.84,22.65,88.83,50.87C532.63,237.63,572.29,260.61,572.22,260.73z"/>
				</g>
			</g>
		</g>
		<g>
			<g>
				<g>
					<g>
						<path class="st6" d="M570.62,311.99c0,0.2-39.62,0.36-88.47,0.36c-48.88,0-88.48-0.16-88.48-0.36c0-0.2,39.61-0.36,88.48-0.36
							C531,311.62,570.62,311.79,570.62,311.99z"/>
					</g>
				</g>
				<g>
					<g>
						<path class="st6" d="M570.62,322.72c0,0.2-39.62,0.36-88.47,0.36c-48.88,0-88.48-0.16-88.48-0.36c0-0.2,39.61-0.36,88.48-0.36
							C531,322.35,570.62,322.52,570.62,322.72z"/>
					</g>
				</g>
				<g>
					<g>
						<path class="st6" d="M472.59,349.42c0,0.18-17.37,0.33-38.78,0.33c-21.43,0-38.79-0.15-38.79-0.33s17.36-0.33,38.79-0.33
							C455.22,349.09,472.59,349.24,472.59,349.42z"/>
					</g>
				</g>
				<g>
					<g>
						<path class="st6" d="M548.19,336.49c0,0.18-34.29,0.33-76.58,0.33c-42.31,0-76.59-0.15-76.59-0.33
							c0-0.18,34.29-0.33,76.59-0.33C513.9,336.15,548.19,336.3,548.19,336.49z"/>
					</g>
				</g>
			</g>
			<g>
				<g>
					<path class="st6" d="M593.93,369.26c0,0-0.01-0.5-0.02-1.45c0-0.96-0.01-2.37-0.02-4.22c-0.01-3.71-0.02-9.17-0.04-16.23
						c-0.02-14.11-0.06-34.59-0.1-60.11l0.18,0.18c-54.57,0.02-133.1,0.05-220.24,0.08h-0.01l0.26-0.26c0,28.62-0.01,56.31-0.01,82
						l-0.25-0.25c63.65,0.05,118.68,0.09,157.81,0.12c19.58,0.03,35.18,0.05,45.89,0.07c5.36,0.01,9.49,0.02,12.29,0.03
						c1.4,0.01,2.46,0.01,3.18,0.02C593.55,369.25,593.93,369.26,593.93,369.26s-0.35,0.01-1.06,0.02c-0.72,0-1.77,0.01-3.15,0.02
						c-2.79,0.01-6.91,0.02-12.24,0.03c-10.7,0.02-26.28,0.04-45.83,0.07c-39.17,0.03-94.26,0.07-157.98,0.12l-0.25,0v-0.25
						c0-25.69-0.01-53.38-0.01-82V287h0.26h0.01c87.14,0.03,165.67,0.06,220.24,0.08h0.18l0,0.18c-0.04,25.56-0.07,46.08-0.1,60.21
						c-0.02,7.04-0.03,12.49-0.04,16.19c-0.01,1.84-0.01,3.23-0.02,4.18C593.94,368.79,593.93,369.26,593.93,369.26z"/>
				</g>
			</g>
		</g>
		<g>
			<ellipse class="st7" cx="158.68" cy="101.16" rx="11.21" ry="10.71"/>
		</g>
	</g>
	<g>
		<g>
			<rect x="75.58" y="230.89" class="st8" width="79.21" height="55.11"/>
		</g>
		<g>
			<g>
				<path class="st6" d="M154.78,230.89c0.08,0.12-17.55,12.66-39.39,28.01c-21.84,15.35-39.61,27.7-39.69,27.58
					c-0.08-0.12,17.55-12.66,39.39-28.01C136.93,243.12,154.7,230.77,154.78,230.89z"/>
			</g>
		</g>
		<g>
			<g>
				<path class="st6" d="M154.78,285.99c-0.01,0.01-0.08-0.03-0.22-0.12c-0.16-0.11-0.36-0.24-0.61-0.4
					c-0.56-0.38-1.33-0.91-2.3-1.57c-2.02-1.41-4.88-3.41-8.4-5.86c-7.09-5.01-16.83-11.9-27.59-19.5
					c-10.73-7.66-20.44-14.59-27.51-19.63c-3.48-2.51-6.3-4.55-8.3-6c-0.95-0.7-1.69-1.25-2.24-1.65c-0.23-0.18-0.42-0.32-0.58-0.44
					c-0.13-0.1-0.19-0.16-0.19-0.16c0.01-0.01,0.08,0.03,0.22,0.12c0.16,0.11,0.36,0.24,0.61,0.4c0.56,0.38,1.33,0.91,2.3,1.57
					c2.02,1.41,4.88,3.41,8.4,5.86c7.09,5.01,16.83,11.9,27.59,19.51c10.72,7.65,20.43,14.58,27.5,19.63c3.48,2.51,6.3,4.56,8.3,6
					c0.95,0.7,1.7,1.25,2.24,1.65c0.23,0.18,0.42,0.32,0.58,0.44C154.73,285.93,154.79,285.99,154.78,285.99z"/>
			</g>
		</g>
	</g>
</g>
<g id="HTML">
	<g>
		<g>
			<g>
				<rect x="141.23" y="352.8" class="st9" width="210.87" height="119.83"/>
			</g>
			<g>
				<g>
					<path class="st6" d="M352.11,472.63c0,0-0.01-0.74-0.02-2.15c-0.01-1.42-0.01-3.52-0.02-6.26c-0.01-5.5-0.03-13.58-0.05-23.96
						c-0.03-20.75-0.06-50.68-0.11-87.46l0.2,0.2c-56.4,0.02-130.26,0.04-210.86,0.06h-0.02l0.26-0.26
						c-0.01,42.39-0.01,82.92-0.02,119.83l-0.24-0.24c61.75,0.05,114.44,0.09,151.7,0.12c18.64,0.03,33.42,0.05,43.55,0.07
						c5.06,0.01,8.96,0.02,11.6,0.03c1.32,0.01,2.32,0.01,3,0.01C351.76,472.62,352.11,472.63,352.11,472.63s-0.33,0.01-1,0.01
						c-0.67,0-1.67,0.01-2.97,0.01c-2.63,0.01-6.51,0.02-11.55,0.03c-10.12,0.02-24.88,0.04-43.5,0.07
						c-37.3,0.03-90.04,0.07-151.86,0.12l-0.24,0l0-0.24c-0.01-36.91-0.01-77.44-0.02-119.83v-0.26h0.26h0.02
						c80.59,0.02,154.46,0.04,210.86,0.06l0.2,0l0,0.2c-0.04,36.83-0.08,66.81-0.11,87.58c-0.02,10.36-0.04,18.43-0.05,23.92
						c-0.01,2.73-0.02,4.81-0.02,6.22C352.12,471.92,352.11,472.63,352.11,472.63z"/>
				</g>
			</g>
		</g>
		<g>
			<g>
				<g>
					<path class="st2" d="M226.79,372.35c0,0.14-14.33,0.26-32,0.26c-17.68,0-32-0.12-32-0.26c0-0.14,14.33-0.26,32-0.26
						C212.46,372.09,226.79,372.21,226.79,372.35z"/>
				</g>
			</g>
			<g>
				<g>
					<path class="st2" d="M260.29,383.83c0,0.14-14.33,0.26-32,0.26c-17.68,0-32-0.12-32-0.26s14.33-0.26,32-0.26
						C245.96,383.57,260.29,383.69,260.29,383.83z"/>
				</g>
			</g>
			<g>
				<g>
					<path class="st2" d="M329.99,372.35c0,0.14-14.33,0.26-32,0.26c-17.68,0-32-0.12-32-0.26c0-0.14,14.33-0.26,32-0.26
						C315.67,372.09,329.99,372.21,329.99,372.35z"/>
				</g>
			</g>
			<g>
				<g>
					<path class="st2" d="M253.98,372.34c0,0.14-3.87,0.26-8.64,0.26c-4.77,0-8.64-0.12-8.64-0.26s3.87-0.26,8.64-0.26
						C250.11,372.08,253.98,372.2,253.98,372.34z"/>
				</g>
			</g>
			<g>
				<g>
					<path class="st2" d="M181.94,383.83c0,0.14-3.87,0.26-8.64,0.26c-4.77,0-8.64-0.12-8.64-0.26s3.87-0.26,8.64-0.26
						C178.08,383.57,181.94,383.69,181.94,383.83z"/>
				</g>
			</g>
			<g>
				<g>
					<path class="st2" d="M285.2,383.35c0,0.14-3.72,0.26-8.31,0.26c-4.59,0-8.32-0.12-8.32-0.26c0-0.14,3.72-0.26,8.32-0.26
						C281.47,383.09,285.2,383.21,285.2,383.35z"/>
				</g>
			</g>
		</g>
		<g>
			<g>
				<g>
					<path class="st2" d="M226.79,398.65c0,0.14-14.33,0.26-32,0.26c-17.68,0-32-0.12-32-0.26c0-0.14,14.33-0.26,32-0.26
						C212.46,398.39,226.79,398.5,226.79,398.65z"/>
				</g>
			</g>
			<g>
				<g>
					<path class="st2" d="M260.29,410.13c0,0.14-14.33,0.26-32,0.26c-17.68,0-32-0.12-32-0.26c0-0.14,14.33-0.26,32-0.26
						C245.96,409.87,260.29,409.99,260.29,410.13z"/>
				</g>
			</g>
			<g>
				<g>
					<path class="st2" d="M329.99,398.65c0,0.14-14.33,0.26-32,0.26c-17.68,0-32-0.12-32-0.26c0-0.14,14.33-0.26,32-0.26
						C315.67,398.39,329.99,398.5,329.99,398.65z"/>
				</g>
			</g>
			<g>
				<g>
					<path class="st2" d="M253.98,398.64c0,0.14-3.87,0.26-8.64,0.26c-4.77,0-8.64-0.12-8.64-0.26c0-0.14,3.87-0.26,8.64-0.26
						C250.11,398.38,253.98,398.5,253.98,398.64z"/>
				</g>
			</g>
			<g>
				<g>
					<path class="st2" d="M181.94,410.13c0,0.14-3.87,0.26-8.64,0.26c-4.77,0-8.64-0.12-8.64-0.26c0-0.14,3.87-0.26,8.64-0.26
						C178.08,409.87,181.94,409.99,181.94,410.13z"/>
				</g>
			</g>
			<g>
				<g>
					<path class="st2" d="M285.2,409.65c0,0.14-3.72,0.26-8.31,0.26c-4.59,0-8.32-0.12-8.32-0.26s3.72-0.26,8.32-0.26
						C281.47,409.39,285.2,409.5,285.2,409.65z"/>
				</g>
			</g>
		</g>
		<g>
			<g>
				<g>
					<path class="st2" d="M227.38,444.24c0,0.14-14.33,0.26-32,0.26c-17.68,0-32-0.12-32-0.26c0-0.14,14.33-0.26,32-0.26
						C213.06,443.98,227.38,444.1,227.38,444.24z"/>
				</g>
			</g>
			<g>
				<g>
					<path class="st2" d="M260.88,455.73c0,0.14-14.33,0.26-32,0.26c-17.68,0-32-0.12-32-0.26c0-0.14,14.33-0.26,32-0.26
						C246.55,455.47,260.88,455.59,260.88,455.73z"/>
				</g>
			</g>
			<g>
				<g>
					<path class="st2" d="M330.59,444.24c0,0.14-14.33,0.26-32,0.26c-17.68,0-32-0.12-32-0.26c0-0.14,14.33-0.26,32-0.26
						C316.26,443.98,330.59,444.1,330.59,444.24z"/>
				</g>
			</g>
			<g>
				<g>
					<path class="st2" d="M254.58,444.24c0,0.14-3.87,0.26-8.64,0.26c-4.77,0-8.64-0.12-8.64-0.26s3.87-0.26,8.64-0.26
						C250.71,443.98,254.58,444.09,254.58,444.24z"/>
				</g>
			</g>
			<g>
				<g>
					<path class="st2" d="M182.54,455.73c0,0.14-3.87,0.26-8.64,0.26c-4.77,0-8.64-0.12-8.64-0.26c0-0.14,3.87-0.26,8.64-0.26
						C178.67,455.47,182.54,455.59,182.54,455.73z"/>
				</g>
			</g>
			<g>
				<g>
					<path class="st2" d="M285.79,455.24c0,0.14-3.72,0.26-8.31,0.26c-4.59,0-8.32-0.12-8.32-0.26s3.72-0.26,8.32-0.26
						C282.07,454.98,285.79,455.1,285.79,455.24z"/>
				</g>
			</g>
		</g>
		<g>
			<g>
				<g>
					<path class="st2" d="M226.79,423.38c0,0.14-14.33,0.26-32,0.26c-17.68,0-32-0.12-32-0.26c0-0.14,14.33-0.26,32-0.26
						C212.46,423.12,226.79,423.23,226.79,423.38z"/>
				</g>
			</g>
			<g>
				<g>
					<path class="st2" d="M260.29,434.86c0,0.14-14.33,0.26-32,0.26c-17.68,0-32-0.12-32-0.26s14.33-0.26,32-0.26
						C245.96,434.6,260.29,434.72,260.29,434.86z"/>
				</g>
			</g>
			<g>
				<g>
					<path class="st2" d="M329.99,423.38c0,0.14-14.33,0.26-32,0.26c-17.68,0-32-0.12-32-0.26c0-0.14,14.33-0.26,32-0.26
						C315.67,423.12,329.99,423.23,329.99,423.38z"/>
				</g>
			</g>
			<g>
				<g>
					<path class="st2" d="M253.98,423.37c0,0.14-3.87,0.26-8.64,0.26c-4.77,0-8.64-0.12-8.64-0.26c0-0.14,3.87-0.26,8.64-0.26
						C250.11,423.11,253.98,423.22,253.98,423.37z"/>
				</g>
			</g>
			<g>
				<g>
					<path class="st2" d="M181.94,434.86c0,0.14-3.87,0.26-8.64,0.26c-4.77,0-8.64-0.12-8.64-0.26s3.87-0.26,8.64-0.26
						C178.08,434.6,181.94,434.72,181.94,434.86z"/>
				</g>
			</g>
			<g>
				<g>
					<path class="st2" d="M285.2,434.38c0,0.14-3.72,0.26-8.31,0.26c-4.59,0-8.32-0.12-8.32-0.26s3.72-0.26,8.32-0.26
						C281.47,434.12,285.2,434.23,285.2,434.38z"/>
				</g>
			</g>
		</g>
		<g>
			<path class="st6" d="M215.2,399.56v21.85h-4.06v-9.37h-11.3v9.37h-4.06v-21.85h4.06v9.02h11.3v-9.02H215.2z"/>
			<path class="st6" d="M225.49,402.99h-7.24v-3.43h18.54v3.43h-7.24v18.42h-4.06V402.99z"/>
			<path class="st6" d="M259.92,421.41l-0.03-14.49l-7.18,11.99h-1.81l-7.18-11.8v14.3h-3.87v-21.85h3.34l8.68,14.49l8.52-14.49
				h3.34l0.03,21.85H259.92z"/>
			<path class="st6" d="M269.66,399.56h4.06v18.42h11.43v3.43h-15.48V399.56z"/>
		</g>
	</g>
</g>
<g id="Speech_Bubble">
	<g>
		<g>
			<g>
				<g>
					<g>
						<g>
							<path class="st3" d="M209.16,155.51l-11.2-5.7c-0.17-5.23-1.73-10.48-4.83-15.16c-8.9-13.47-27.03-17.18-40.5-8.28
								c-13.47,8.9-17.18,27.03-8.28,40.5c8.9,13.47,27.03,17.18,40.5,8.28c5.62-3.72,9.54-9.04,11.55-14.97l0,0.02L209.16,155.51z"
								/>
						</g>
						<g>
							<g>
								<path class="st6" d="M209.16,155.51c-0.86,0.32-4.73,1.79-12.71,4.81c-0.07,0.03-0.14-0.01-0.17-0.07
									c-0.01-0.02-0.01-0.04-0.01-0.06c0,0,0-0.01,0-0.02l0.25,0.05c-1.33,3.99-3.91,8.72-8.45,12.7
									c-1.14,0.98-2.36,1.94-3.74,2.76c-0.69,0.4-1.38,0.83-2.1,1.23c-0.75,0.35-1.5,0.7-2.27,1.05
									c-3.13,1.28-6.65,2.11-10.38,2.21c-3.72,0.11-7.63-0.49-11.39-1.92c-3.75-1.43-7.37-3.67-10.38-6.72
									c-3-3.05-5.42-6.83-6.9-11.07c-1.47-4.23-2.07-8.91-1.4-13.53c0.66-4.7,2.32-9.22,4.98-12.96c2.62-3.76,6.06-6.8,9.85-8.93
									c3.8-2.13,7.95-3.38,12.03-3.67c4.08-0.31,8.06,0.25,11.64,1.44c3.58,1.19,6.76,3.02,9.4,5.18
									c2.65,2.18,4.66,4.74,6.31,7.25c3.19,5.15,4.23,10.42,4.34,14.54l-0.07-0.11C205.03,153.36,208.38,155.11,209.16,155.51
									c-0.78-0.39-4.17-2.07-11.25-5.59c-0.04-0.02-0.07-0.06-0.07-0.11c-0.15-4.08-1.22-9.28-4.4-14.35
									c-1.64-2.48-3.64-4.99-6.26-7.13c-2.62-2.12-5.75-3.91-9.29-5.07c-3.53-1.17-7.45-1.7-11.46-1.39
									c-4.01,0.29-8.09,1.53-11.82,3.63c-3.73,2.1-7.1,5.09-9.68,8.78c-2.61,3.67-4.24,8.11-4.89,12.73
									c-0.66,4.54-0.06,9.13,1.37,13.29c1.45,4.16,3.83,7.89,6.77,10.89c2.95,3,6.5,5.21,10.19,6.62c3.7,1.41,7.54,2.02,11.2,1.92
									c3.67-0.09,7.14-0.89,10.23-2.14c0.76-0.35,1.51-0.69,2.24-1.03c0.71-0.39,1.39-0.81,2.08-1.2c1.36-0.8,2.58-1.74,3.71-2.7
									c4.5-3.9,7.09-8.57,8.44-12.51c0.02-0.07,0.1-0.1,0.16-0.08c0.06,0.02,0.09,0.08,0.09,0.13c0,0.01,0,0.02,0,0.02l-0.17-0.13
									C204.4,157.21,208.3,155.82,209.16,155.51z"/>
							</g>
						</g>
					</g>
				</g>
			</g>
		</g>
		<g>
			<g>
				<g>
					<g>
						<g>
							<g>
								<path class="st6" d="M175.36,157.16c-0.01-0.02,0.15-0.2,0.45-0.51c0.35-0.36,0.79-0.79,1.31-1.31
									c1.11-1.1,2.66-2.6,4.39-4.25l0.04-0.04l0,0.22c-1.74-1.62-3.3-3.09-4.42-4.16c-0.52-0.51-0.96-0.94-1.31-1.29
									c-0.31-0.31-0.47-0.49-0.45-0.5c0.01-0.02,0.2,0.13,0.53,0.42c0.37,0.33,0.83,0.74,1.38,1.22c1.16,1.04,2.74,2.48,4.48,4.1
									l0.12,0.11l-0.12,0.11l-0.04,0.04c-1.73,1.65-3.3,3.12-4.45,4.18c-0.54,0.49-1,0.91-1.37,1.24
									C175.57,157.02,175.38,157.17,175.36,157.16z"/>
								<path class="st6" d="M175.36,157.29c-0.03,0-0.06-0.02-0.08-0.05l0,0c-0.09-0.1-0.06-0.15,0.45-0.68l1.31-1.31
									c1.13-1.11,2.62-2.56,4.22-4.08c-1.58-1.47-3.06-2.87-4.2-3.96c-0.52-0.51-0.96-0.94-1.32-1.29
									c-0.5-0.5-0.56-0.57-0.46-0.68c0.1-0.11,0.16-0.06,0.71,0.41l1.38,1.22c1.18,1.05,2.69,2.44,4.29,3.93l0.02-0.02l0,0.04
									c0.06,0.05,0.11,0.1,0.17,0.16l0.22,0.2l-0.25,0.24c-0.04,0.04-0.08,0.08-0.13,0.12l0,0.04l-0.02-0.02
									c-1.63,1.55-3.15,2.98-4.3,4.04l-1.37,1.24C175.59,157.17,175.45,157.29,175.36,157.29z M181.43,151.33
									c-1.22,1.17-2.39,2.29-3.37,3.25c1-0.93,2.17-2.04,3.41-3.22l-0.01-0.01C181.45,151.35,181.44,151.34,181.43,151.33z
									 M181.67,151.14l0,0.03l0.02-0.02L181.67,151.14z M178.09,147.85c0.99,0.94,2.14,2.02,3.34,3.14l0.04-0.04
									C180.26,149.83,179.09,148.76,178.09,147.85z"/>
							</g>
						</g>
					</g>
				</g>
			</g>
			<g>
				<g>
					<g>
						<g>
							<g>
								<path class="st6" d="M161.94,145.32c0.01,0.02-0.15,0.2-0.45,0.51c-0.35,0.36-0.79,0.79-1.31,1.31
									c-1.11,1.1-2.66,2.6-4.39,4.25l-0.04,0.04l0-0.22c1.74,1.62,3.3,3.09,4.42,4.16c0.52,0.51,0.96,0.94,1.31,1.29
									c0.31,0.31,0.47,0.49,0.45,0.5c-0.01,0.02-0.2-0.13-0.53-0.41c-0.37-0.33-0.83-0.74-1.38-1.22
									c-1.16-1.04-2.74-2.48-4.48-4.1l-0.12-0.11l0.12-0.11l0.04-0.04c1.73-1.65,3.3-3.12,4.45-4.18c0.54-0.49,1-0.91,1.37-1.24
									C161.74,145.46,161.93,145.3,161.94,145.32z"/>
								<path class="st6" d="M161.95,157.29c-0.08,0-0.22-0.11-0.62-0.45l-1.38-1.22c-1.16-1.04-2.67-2.42-4.29-3.92l-0.02,0.02
									l0-0.04c-0.06-0.05-0.11-0.1-0.17-0.16l-0.22-0.2l0.25-0.24c0.04-0.04,0.09-0.08,0.13-0.12l0-0.04l0.02,0.02
									c1.63-1.55,3.15-2.98,4.3-4.04l1.37-1.24c0.54-0.48,0.61-0.52,0.71-0.42c0.1,0.11,0.04,0.18-0.45,0.68l-1.31,1.31
									c-1.12,1.11-2.61,2.55-4.22,4.08c1.59,1.48,3.08,2.88,4.2,3.97l1.31,1.29c0.5,0.51,0.56,0.57,0.46,0.68
									C162.01,157.27,161.98,157.29,161.95,157.29z M155.84,151.52c1.22,1.13,2.38,2.2,3.38,3.1c-0.98-0.93-2.13-2.01-3.34-3.14
									L155.84,151.52z M155.61,151.32l0.02,0.02v-0.03L155.61,151.32z M155.83,151.11L155.83,151.11
									c0.02,0.02,0.03,0.03,0.04,0.04c1.23-1.17,2.39-2.3,3.37-3.25C158.25,148.82,157.07,149.93,155.83,151.11z"/>
							</g>
						</g>
					</g>
				</g>
			</g>
			<g>
				<g>
					<g>
						<g>
							<g>
								<path class="st6" d="M165.39,159.95c-0.08-0.03,1.33-3.99,3.15-8.84c1.82-4.86,3.35-8.77,3.43-8.74
									c0.08,0.03-1.33,3.99-3.15,8.84C167,156.06,165.47,159.98,165.39,159.95z"/>
								<path class="st6" d="M165.4,160.08c-0.02,0-0.04-0.01-0.05-0.01l0,0c-0.15-0.06-0.17-0.07,0.79-2.77
									c0.59-1.67,1.41-3.88,2.28-6.23c0.88-2.35,1.72-4.55,2.37-6.2c1.05-2.67,1.07-2.66,1.22-2.61c0.15,0.06,0.17,0.07-0.79,2.77
									c-0.59,1.67-1.41,3.89-2.28,6.23c-0.88,2.35-1.72,4.55-2.37,6.2C165.65,159.78,165.52,160.08,165.4,160.08z M170.55,146.15
									c-0.53,1.36-1.17,3.05-1.9,4.99c-0.73,1.94-1.35,3.64-1.85,5.01c0.53-1.36,1.17-3.05,1.9-4.99
									C169.43,149.23,170.05,147.53,170.55,146.15z"/>
							</g>
						</g>
					</g>
				</g>
			</g>
		</g>
	</g>
</g>
<g id="Floor_1_">
	<g>
		<g>
			<path class="st6" d="M675.98,472.63c0,0.14-137,0.26-305.96,0.26c-169.02,0-305.99-0.12-305.99-0.26
				c0-0.14,136.97-0.26,305.99-0.26C538.97,472.37,675.98,472.49,675.98,472.63z"/>
		</g>
	</g>
</g>
<g id="Character">
	<g>
		<g>
			<g>
				<g>
					<g>
						<g>
							<g>
								<path class="st6" d="M243.12,126.73c0.71-5.31,5.43-9.8,10.77-10.24c1.4-0.12,2.85,0.01,4.17-0.47
									c1.08-0.39,1.98-1.16,2.99-1.71c3.25-1.75,7.7-0.82,9.98,2.08c2.14,2.74,3.01-1.07,8.06,1.93c4.19,2.49,2,5.95,2,5.95
									c4.32-0.18,8.51,3.16,9.3,7.41c0.5,2.7-0.05,5.99,2.05,7.75c1.02,0.85,2.44,1.09,3.49,1.9c1.96,1.51,2.03,4.43,1.58,6.86
									c-0.44,2.43-1.2,5-0.3,7.3c1.48,3.77,6.85,5.27,7.52,9.27c0.31,1.89-0.48,4.15,0.83,5.54c0.53,0.56,1.29,0.82,1.98,1.16
									c2.8,1.37,4.72,4.38,4.78,7.49c0.07,3.12-1.72,6.2-4.46,7.69c-0.76,0.42-1.67,0.8-1.96,1.62c-0.33,0.91,0.28,1.86,0.71,2.73
									c1.59,3.17,0.81,7.36-1.81,9.75c-2.62,2.39-6.86,2.78-9.87,0.91c-1.61,2.88-4.38,5.08-7.55,6
									c-1.46,0.42-3.04,0.58-4.49,0.12c-1.16-0.37-2.17-1.1-3.08-1.9c-4.37-3.81-10.5-9.64-10.91-15.42"/>
							</g>
						</g>
					</g>
				</g>
			</g>
		</g>
		<g>
			<g>
				<path class="st10" d="M344.03,194.91l-26.2,23.99c-3.25-0.75-43.14-24.6-43.14-24.6l-6.3,30.68c0,0,40.82,18.77,52.06,16.49
					c1.83-0.37,4.85-0.61,6.74-3.04c8.99-11.55,28.05-40.12,28.05-40.12L344.03,194.91z"/>
			</g>
			<g>
				<path class="st10" d="M356.69,168.5c-1.73,0.71-7.91,11.12-7.91,11.12l-1.55,0.08c-2.84,0.15-4.96,2.68-4.62,5.51
					c0.52,4.34,1.42,9.7,1.42,9.7l8.65,3.94l2.57-0.54c2.38-0.13,4.7-4.97,6.17-8.38s-0.94-4.09-0.94-4.09
					c0.03-3.39-2.87-2.72-2.87-2.72c-0.08-3.02-3.09-2.94-3.09-2.94s3.84-7.02,4.59-9.49C359.84,168.22,358.42,167.8,356.69,168.5z"
					/>
			</g>
			<g>
				<path class="st11" d="M357.43,183.12c0.04,0.02-0.31,0.86-0.9,2.18c-0.15,0.32-0.29,0.71-0.54,1.09
					c-0.24,0.37-0.56,0.73-0.94,1.04c-0.39,0.3-0.83,0.61-1.4,0.72c-0.55,0.1-1.18-0.01-1.67-0.4c-0.24-0.2-0.42-0.48-0.5-0.77
					c-0.08-0.29-0.07-0.59-0.03-0.86c0.1-0.55,0.28-1.02,0.44-1.48c0.34-0.91,0.71-1.7,1.06-2.35c0.35-0.64,0.67-1.14,0.91-1.48
					c0.24-0.33,0.39-0.51,0.4-0.49c0.05,0.03-0.46,0.78-1.1,2.08c-0.32,0.65-0.67,1.44-0.98,2.34c-0.15,0.45-0.33,0.93-0.41,1.42
					c-0.09,0.49,0.02,1,0.41,1.32c0.39,0.31,0.92,0.41,1.4,0.33c0.47-0.08,0.9-0.36,1.26-0.63c0.37-0.29,0.67-0.61,0.91-0.96
					c0.23-0.33,0.38-0.7,0.56-1.03C356.96,183.89,357.39,183.1,357.43,183.12z"/>
			</g>
			<g>
				<path class="st11" d="M360.37,185.36c0.02,0.01-0.03,0.22-0.14,0.6c-0.11,0.38-0.29,0.92-0.57,1.57
					c-0.28,0.65-0.67,1.42-1.31,2.13c-0.31,0.35-0.7,0.71-1.2,0.92c-0.5,0.21-1.16,0.23-1.66-0.16c-0.51-0.4-0.57-1.08-0.5-1.58
					c0.07-0.53,0.25-1,0.39-1.44c0.31-0.88,0.64-1.66,0.93-2.3c0.3-0.64,0.57-1.14,0.77-1.48c0.2-0.34,0.32-0.52,0.34-0.51
					c0.05,0.03-0.35,0.8-0.89,2.09c-0.27,0.65-0.57,1.42-0.86,2.3c-0.14,0.44-0.3,0.9-0.36,1.37c-0.06,0.47,0.01,0.99,0.38,1.27
					c0.36,0.28,0.9,0.29,1.32,0.12c0.43-0.18,0.79-0.49,1.1-0.83c0.62-0.66,1.02-1.39,1.32-2.02
					C360.03,186.17,360.32,185.34,360.37,185.36z"/>
			</g>
			<g>
				<path class="st11" d="M361.9,187.87c0.04,0,0,0.65-0.34,1.62c-0.17,0.48-0.43,1.04-0.79,1.62c-0.19,0.28-0.38,0.59-0.66,0.86
					c-0.28,0.27-0.71,0.49-1.18,0.39c-0.48-0.11-0.75-0.55-0.82-0.94c-0.07-0.4,0-0.77,0.06-1.1c0.15-0.68,0.42-1.23,0.64-1.69
					c0.47-0.9,0.73-1.46,0.77-1.45c0.05,0.02-0.14,0.63-0.55,1.55c-0.19,0.46-0.43,1.01-0.55,1.65c-0.06,0.32-0.11,0.66-0.04,0.98
					c0.06,0.31,0.27,0.61,0.56,0.67c0.31,0.07,0.64-0.08,0.87-0.3c0.24-0.22,0.44-0.52,0.63-0.79c0.37-0.54,0.63-1.08,0.83-1.53
					C361.73,188.48,361.85,187.86,361.9,187.87z"/>
			</g>
			<g>
				<path class="st10" d="M347.23,179.71c2.22-0.09,5.5-0.09,7.64,0.07c0.51,1.23-0.34,2.68-1.52,3.3c-1.18,0.62-2.57,0.61-3.9,0.56
					c1.02,0.95,1.61,2.34,1.59,3.73c-0.02,1.39-0.65,2.76-1.7,3.68"/>
			</g>
			<g>
				<g>
					<path class="st11" d="M349.34,191.04c-0.05-0.04,0.71-0.58,1.24-1.95c0.25-0.68,0.42-1.56,0.26-2.53
						c-0.16-0.96-0.65-2.01-1.51-2.81l-0.32-0.29l0.43,0.01c1.11,0.03,2.36,0.07,3.5-0.4c1.35-0.52,2.25-2.06,1.76-3.23l0.14,0.1
						c-2.22-0.16-4.14-0.17-5.48-0.18c-0.63,0-1.15-0.01-1.58-0.01c-0.37,0-0.56-0.01-0.57-0.03c0-0.02,0.2-0.04,0.56-0.07
						c0.37-0.03,0.9-0.06,1.58-0.08c1.35-0.04,3.26-0.08,5.51,0.06l0.1,0.01l0.04,0.09c0.29,0.67,0.18,1.49-0.2,2.15
						c-0.37,0.67-0.99,1.23-1.73,1.52c-1.24,0.51-2.53,0.45-3.64,0.41l0.12-0.28c0.92,0.87,1.41,1.98,1.56,3.01
						c0.15,1.03-0.05,1.96-0.34,2.65c-0.29,0.7-0.68,1.17-0.96,1.47C349.54,190.93,349.35,191.05,349.34,191.04z"/>
				</g>
			</g>
		</g>
		<g>
			<g>
				<g>
					<g>
						<g>
							<g>
								<path class="st6" d="M297.21,453.7c0.03,0.01,0.21-0.28,0.39-0.86c0.18-0.58,0.34-1.48,0.2-2.59
									c-0.04-0.27-0.07-0.56-0.2-0.88c-0.12-0.31-0.42-0.65-0.86-0.69c-0.21-0.03-0.47,0.05-0.64,0.22
									c-0.17,0.17-0.24,0.39-0.26,0.59c-0.05,0.4,0.01,0.73,0.02,1.09c0.06,0.73,0.06,1.42,0.17,2.26
									c0.06,0.43,0.41,0.93,0.89,1.08c0.46,0.16,0.92,0.12,1.34,0.05c0.83-0.14,1.62-0.38,2.36-0.7c0.37-0.16,0.72-0.33,1.05-0.52
									c0.32-0.19,0.68-0.37,0.95-0.72c0.27-0.34,0.37-0.9,0.03-1.28c-0.36-0.37-0.82-0.33-1.14-0.27
									c-0.69,0.17-1.19,0.44-1.69,0.69c-0.97,0.53-1.64,1.11-2.08,1.54c-0.43,0.43-0.62,0.71-0.59,0.74
									c0.07,0.08,0.95-0.97,2.85-1.92c0.46-0.22,1.03-0.48,1.58-0.59c0.27-0.05,0.57-0.01,0.69,0.14c0.13,0.14,0.1,0.43-0.06,0.63
									c-0.17,0.22-0.48,0.39-0.8,0.56c-0.32,0.17-0.65,0.33-1,0.48c-0.7,0.29-1.45,0.51-2.24,0.65c-0.38,0.06-0.76,0.08-1.06-0.03
									c-0.3-0.1-0.47-0.33-0.54-0.66c-0.1-0.69-0.13-1.49-0.19-2.18c-0.02-0.35-0.08-0.71-0.05-0.99c0.03-0.29,0.16-0.42,0.36-0.4
									c0.47,0.03,0.63,0.66,0.71,1.16C297.75,452.4,297.1,453.68,297.21,453.7z"/>
							</g>
						</g>
					</g>
				</g>
			</g>
		</g>
		<g>
			<g>
				<g>
					<g>
						<g>
							<g>
								<path class="st6" d="M339.78,413.5c0.03,0,0.07-0.34-0.03-0.95c-0.1-0.6-0.35-1.48-0.96-2.41c-0.16-0.23-0.31-0.47-0.57-0.7
									c-0.24-0.22-0.67-0.39-1.07-0.24c-0.2,0.07-0.4,0.25-0.47,0.48c-0.08,0.23-0.04,0.46,0.02,0.64
									c0.13,0.38,0.33,0.65,0.5,0.97c0.37,0.63,0.68,1.25,1.15,1.95c0.24,0.36,0.78,0.66,1.27,0.57c0.49-0.06,0.88-0.3,1.23-0.54
									c0.68-0.5,1.29-1.06,1.81-1.67c0.26-0.3,0.5-0.61,0.71-0.93c0.2-0.31,0.44-0.63,0.54-1.06c0.09-0.42-0.07-0.97-0.54-1.16
									c-0.48-0.17-0.88,0.07-1.14,0.26c-0.55,0.45-0.87,0.92-1.21,1.37c-0.63,0.9-0.99,1.72-1.18,2.3
									c-0.19,0.58-0.24,0.91-0.21,0.92c0.1,0.04,0.42-1.29,1.71-2.98c0.32-0.4,0.72-0.89,1.16-1.22c0.23-0.16,0.51-0.27,0.68-0.18
									c0.18,0.06,0.28,0.34,0.22,0.6c-0.06,0.27-0.26,0.56-0.47,0.86c-0.21,0.3-0.44,0.59-0.69,0.87c-0.5,0.57-1.07,1.1-1.72,1.57
									c-0.31,0.22-0.65,0.41-0.96,0.44c-0.32,0.04-0.56-0.09-0.77-0.36c-0.4-0.57-0.77-1.28-1.14-1.87
									c-0.18-0.31-0.39-0.61-0.48-0.86c-0.1-0.27-0.04-0.45,0.15-0.52c0.43-0.18,0.86,0.31,1.15,0.73
									C339.68,412.1,339.67,413.54,339.78,413.5z"/>
							</g>
						</g>
					</g>
				</g>
			</g>
		</g>
		<g>
			<g>
				<g>
					<g>
						<g>
							<polygon class="st10" points="310.13,423.26 297.93,449.71 278.24,440.61 290.86,407.88 							"/>
						</g>
					</g>
				</g>
			</g>
			<g>
				<g>
					<g>
						<g>
							<g>
								<g>
									<g>
										<g>
											<g>
												<g>
													<g>
														<g>
															<g>
																<g>
																	<path class="st8" d="M300.24,447.94l-7.13,13.6c0,0,18.25,18.87,16.54,23.09l-42.9-20.57l11.79-27.27
																		L300.24,447.94z"/>
																</g>
															</g>
														</g>
													</g>
												</g>
											</g>
										</g>
									</g>
								</g>
							</g>
						</g>
						<g>
							<g>
								<g>
									<g>
										<g>
											<g>
												<g>
													<g>
														<g>
															<g>
																<g>
																	<g>
																		<path class="st1" d="M280.73,453.32c-0.94-0.17-1.96,0.49-2.17,1.42c-0.21,0.93,0.45,1.98,1.39,2.16
																			c0.94,0.19,2.19-0.57,2.29-1.51c0.1-0.95-0.74-2.13-1.69-2.09"/>
																	</g>
																</g>
															</g>
														</g>
													</g>
												</g>
											</g>
										</g>
									</g>
								</g>
							</g>
						</g>
						<g class="st12">
							<g>
								<g>
									<g>
										<g>
											<g>
												<g>
													<g>
														<g>
															<g>
																<g>
																	<path class="st3" d="M266.74,464.05l1.78-3.42l40.46,21c0,0,1.51,1.75,0.65,2.99L266.74,464.05z"/>
																</g>
															</g>
														</g>
													</g>
												</g>
											</g>
										</g>
									</g>
								</g>
							</g>
						</g>
						<g>
							<g>
								<g>
									<g>
										<g>
											<g>
												<g>
													<g>
														<g>
															<g>
																<g>
																	<g>
																		<path class="st6" d="M293.91,461.65c-0.11,0.21-1.2-0.2-2.55-0.02c-1.36,0.14-2.32,0.8-2.48,0.62
																			c-0.17-0.13,0.74-1.24,2.38-1.42C292.9,460.62,294.04,461.48,293.91,461.65z"/>
																	</g>
																</g>
															</g>
														</g>
													</g>
												</g>
											</g>
										</g>
									</g>
								</g>
							</g>
						</g>
						<g>
							<g>
								<g>
									<g>
										<g>
											<g>
												<g>
													<g>
														<g>
															<g>
																<g>
																	<g>
																		<path class="st6" d="M297.51,465.67c-0.05,0.23-1.13,0.15-2.26,0.69c-1.15,0.51-1.79,1.38-2,1.27
																			c-0.21-0.06,0.23-1.36,1.66-2.01C296.33,464.96,297.6,465.47,297.51,465.67z"/>
																	</g>
																</g>
															</g>
														</g>
													</g>
												</g>
											</g>
										</g>
									</g>
								</g>
							</g>
						</g>
						<g>
							<g>
								<g>
									<g>
										<g>
											<g>
												<g>
													<g>
														<g>
															<g>
																<g>
																	<g>
																		<path class="st6" d="M297.49,472.28c-0.21-0.05,0-1.23,1.09-2.12c1.08-0.9,2.29-0.88,2.29-0.66
																			c0.04,0.23-0.9,0.54-1.78,1.28C298.19,471.5,297.7,472.36,297.49,472.28z"/>
																	</g>
																</g>
															</g>
														</g>
													</g>
												</g>
											</g>
										</g>
									</g>
								</g>
							</g>
						</g>
						<g>
							<g>
								<g>
									<g>
										<g>
											<g>
												<g>
													<g>
														<g>
															<g>
																<g>
																	<g>
																		<path class="st6" d="M295.95,456.41c-0.18,0.15-1-0.6-2.22-1.09c-1.21-0.51-2.32-0.56-2.35-0.79
																			c-0.05-0.21,1.22-0.55,2.65,0.04C295.47,455.16,296.13,456.3,295.95,456.41z"/>
																	</g>
																</g>
															</g>
														</g>
													</g>
												</g>
											</g>
										</g>
									</g>
								</g>
							</g>
						</g>
					</g>
				</g>
			</g>
			<g>
				<g>
					<g>
						<g>
							<path class="st6" d="M310.41,432.34L341.49,355c0,0-0.72-13.73-3.25-18.07c-2.53-4.34-79.15-29.64-79.15-29.64
								s-19.52-4.7-32.53,0c-13.01,4.7-22.77,20.96-20.96,30c1.81,9.04,9.43,15.67,9.43,15.67l56.35,1.67l30.71,11.2l-20.68,59.27
								C281.4,425.11,291.98,436.68,310.41,432.34z"/>
						</g>
					</g>
				</g>
			</g>
			<g>
				<g>
					<g>
						<g>
							<polygon class="st10" points="337.93,380.49 338.66,409.6 316.98,410.13 313.85,375.19 							"/>
						</g>
					</g>
				</g>
			</g>
			<g>
				<g>
					<g>
						<g>
							<g>
								<g>
									<g>
										<g>
											<g>
												<g>
													<g>
														<g>
															<g>
																<g>
																	<path class="st8" d="M339.95,407l-0.4,15.35c0,0,24.7,8.87,25.03,13.42l-47.57,0.48l-1.46-29.67L339.95,407z"/>
																</g>
															</g>
														</g>
													</g>
												</g>
											</g>
										</g>
									</g>
								</g>
							</g>
						</g>
						<g>
							<g>
								<g>
									<g>
										<g>
											<g>
												<g>
													<g>
														<g>
															<g>
																<g>
																	<g>
																		<path class="st1" d="M324.82,420.43c-0.92,0.26-1.54,1.3-1.32,2.23c0.22,0.93,1.28,1.57,2.2,1.33
																			c0.92-0.24,1.71-1.47,1.39-2.37c-0.33-0.9-1.6-1.59-2.44-1.13"/>
																	</g>
																</g>
															</g>
														</g>
													</g>
												</g>
											</g>
										</g>
									</g>
								</g>
							</g>
						</g>
						<g class="st12">
							<g>
								<g>
									<g>
										<g>
											<g>
												<g>
													<g>
														<g>
															<g>
																<g>
																	<path class="st3" d="M317.01,436.25l0.09-3.86l45.58,0.98c0,0,2.13,0.9,1.9,2.39L317.01,436.25z"/>
																</g>
															</g>
														</g>
													</g>
												</g>
											</g>
										</g>
									</g>
								</g>
							</g>
						</g>
						<g>
							<g>
								<g>
									<g>
										<g>
											<g>
												<g>
													<g>
														<g>
															<g>
																<g>
																	<g>
																		<path class="st6" d="M340.32,422.1c-0.01,0.23-1.17,0.35-2.3,1.11c-1.16,0.73-1.73,1.74-1.95,1.65
																			c-0.21-0.04,0.12-1.44,1.51-2.33C338.96,421.62,340.37,421.88,340.32,422.1z"/>
																	</g>
																</g>
															</g>
														</g>
													</g>
												</g>
											</g>
										</g>
									</g>
								</g>
							</g>
						</g>
						<g>
							<g>
								<g>
									<g>
										<g>
											<g>
												<g>
													<g>
														<g>
															<g>
																<g>
																	<g>
																		<path class="st6" d="M345.33,424.11c0.06,0.22-0.95,0.63-1.73,1.62c-0.81,0.97-1,2.03-1.23,2.02
																			c-0.22,0.04-0.39-1.32,0.6-2.53C343.96,424,345.33,423.89,345.33,424.11z"/>
																	</g>
																</g>
															</g>
														</g>
													</g>
												</g>
											</g>
										</g>
									</g>
								</g>
							</g>
						</g>
						<g>
							<g>
								<g>
									<g>
										<g>
											<g>
												<g>
													<g>
														<g>
															<g>
																<g>
																	<g>
																		<path class="st6" d="M348.23,430.05c-0.21,0.05-0.55-1.11,0.04-2.38c0.57-1.28,1.66-1.8,1.77-1.6
																			c0.13,0.19-0.57,0.88-1.03,1.94C348.52,429.05,348.46,430.03,348.23,430.05z"/>
																	</g>
																</g>
															</g>
														</g>
													</g>
												</g>
											</g>
										</g>
									</g>
								</g>
							</g>
						</g>
						<g>
							<g>
								<g>
									<g>
										<g>
											<g>
												<g>
													<g>
														<g>
															<g>
																<g>
																	<g>
																		<path class="st6" d="M339.85,416.49c-0.1,0.21-1.16-0.1-2.48,0.01c-1.31,0.08-2.33,0.53-2.45,0.33
																			c-0.14-0.17,0.85-1.04,2.4-1.14C338.86,415.58,339.96,416.31,339.85,416.49z"/>
																	</g>
																</g>
															</g>
														</g>
													</g>
												</g>
											</g>
										</g>
									</g>
								</g>
							</g>
						</g>
					</g>
				</g>
			</g>
			<g>
				<g>
					<g>
						<g>
							<path class="st6" d="M325.27,299.65c0,0,12.99-1.04,14.44,13.06c1.45,14.1,2.87,79.88,2.87,79.88l-30.36,2.53l-4.7-67.22
								l-48.43-20.6C259.09,307.29,316.6,297.85,325.27,299.65z"/>
						</g>
					</g>
				</g>
			</g>
			<g>
				<g>
					<g>
						<g>
							<path class="st6" d="M271.72,280.63c0,0,7.88,22.11,6.38,24.57c-1.5,2.46-21.78,12.6-21.78,12.6l-50.73,19.48
								c0,0-5.21-8.29-5.21-21.02c0-12.73,17.65-35.64,17.65-35.64H271.72z"/>
						</g>
					</g>
				</g>
			</g>
			<g>
				<g>
					<g>
						<g>
							<g>
								<path class="st8" d="M256.69,306.16c0,0.01,0.08,0.05,0.24,0.13c0.19,0.09,0.42,0.2,0.72,0.33c0.67,0.3,1.61,0.72,2.81,1.25
									c2.49,1.09,6.07,2.64,10.55,4.59c9.05,3.9,21.73,9.36,36.41,15.67l-0.16-0.23c0.46,6.64,0.96,13.81,1.47,21.23
									c1.23,17.34,2.37,33.34,3.27,45.99l0.02,0.23l0.23-0.02c9.23-0.81,16.81-1.48,22.12-1.94c2.61-0.24,4.66-0.43,6.09-0.57
									c0.67-0.07,1.2-0.13,1.59-0.17c0.36-0.04,0.54-0.07,0.54-0.08c0-0.01-0.19-0.01-0.55,0.01c-0.39,0.02-0.92,0.06-1.6,0.1
									c-1.43,0.11-3.49,0.26-6.1,0.45c-5.31,0.42-12.89,1.02-22.13,1.75l0.24,0.21c-0.87-12.65-1.97-28.65-3.16-46
									c-0.52-7.42-1.03-14.59-1.49-21.23l-0.01-0.17l-0.15-0.06c-14.71-6.24-27.42-11.64-36.49-15.49
									c-4.5-1.89-8.1-3.4-10.61-4.45c-1.22-0.5-2.17-0.89-2.84-1.17c-0.31-0.12-0.55-0.22-0.74-0.29
									C256.78,306.18,256.69,306.15,256.69,306.16z"/>
							</g>
						</g>
					</g>
				</g>
			</g>
			<g>
				<g>
					<g>
						<g>
							<g>
								<path class="st8" d="M216.34,308.37c0.01,0.04,0.52-0.1,1.42-0.39c1.01-0.32,2.29-0.74,3.82-1.23
									c3.22-1.02,7.7-2.45,12.78-3.23c5.09-0.79,9.8-0.54,13.09,0.17c3.3,0.68,5.2,1.63,5.24,1.52c0.01-0.03-0.45-0.29-1.32-0.67
									c-0.87-0.38-2.18-0.84-3.84-1.24c-3.31-0.82-8.11-1.13-13.26-0.34c-5.15,0.79-9.63,2.29-12.83,3.41
									c-1.6,0.57-2.88,1.05-3.77,1.4C216.81,308.12,216.32,308.34,216.34,308.37z"/>
							</g>
						</g>
					</g>
				</g>
			</g>
			<g>
				<g>
					<g>
						<g>
							<g>
								<path class="st8" d="M223.51,296.72c0.01,0.09,1.7-0.24,4.44-0.03c1.37,0.1,2.99,0.3,4.8,0.51
									c1.81,0.21,3.79,0.46,5.85,0.85c4.12,0.73,7.67,2.17,9.94,3.69c2.29,1.49,3.37,2.85,3.45,2.78
									c0.02-0.02-0.21-0.38-0.74-0.95c-0.53-0.57-1.34-1.36-2.49-2.15c-2.26-1.64-5.89-3.17-10.06-3.91
									c-2.08-0.39-4.08-0.62-5.89-0.81c-1.81-0.18-3.45-0.35-4.84-0.4c-1.39-0.05-2.52,0.03-3.28,0.15
									C223.91,296.56,223.5,296.69,223.51,296.72z"/>
							</g>
						</g>
					</g>
				</g>
			</g>
		</g>
		<g>
			<g>
				<g>
					<g>
						<path class="st10" d="M272.98,193.54c0,0,5.23,1.67,8.43,7.32c3.16,5.6,2.32,8.37,1.49,11.68c-0.83,3.31-2.29,9.88-2.37,9.46
							C280.45,221.57,272.98,193.54,272.98,193.54z"/>
					</g>
				</g>
			</g>
			<g>
				<g>
					<g>
						<polygon class="st10" points="272.62,193.54 265.97,189.59 228.47,188.6 241.1,230.02 263.94,244.4 277.48,237.63 
							278.83,222.58 						"/>
					</g>
				</g>
			</g>
			<g>
				<g>
					<g>
						<g>
							<path class="st7" d="M272.98,193.54c0,0,8.62,27.66,8.43,35.59c-0.2,7.92-3.48,30.42-3.11,34.85
								c0.38,4.44-1.17,16.66-6.57,16.66c-5.41,0-53.69,0-53.69,0s-12.13-3.35-12.65-10.64c-0.53-7.29,9.33-69.61,9.33-69.61
								s6.85-10.34,11.28-11.29c4.44-0.95,12.67-2.77,15.64,6.41c2.97,9.19,3.94,13.9,10.28,20.24
								c6.34,6.34,15.36,13.45,15.36,13.45s7.29-6.09,7.6-14.33c0.32-8.24-2.76-21.59-2.76-21.59L272.98,193.54z"/>
						</g>
					</g>
				</g>
			</g>
			<g>
				<g>
					<g>
						<g>
							<g>
								<path class="st6" d="M265.02,281.23c0.02,0.06,0.93-0.21,2.12-1.12c1.2-0.89,2.59-2.5,3.59-4.55c1-2.05,1.5-4.05,1.83-5.48
									c0.31-1.44,0.44-2.34,0.37-2.36c-0.08-0.02-0.35,0.85-0.76,2.26c-0.42,1.4-0.98,3.35-1.95,5.33
									c-0.97,1.98-2.24,3.55-3.34,4.49C265.81,280.75,264.98,281.14,265.02,281.23z"/>
							</g>
						</g>
					</g>
				</g>
			</g>
			<g>
				<g>
					<g>
						<g>
							<g>
								<path class="st6" d="M236.61,246.94c-0.02,0.03,0.29,0.31,0.9,0.76c0.61,0.45,1.54,1.04,2.78,1.62
									c1.23,0.58,2.79,1.1,4.58,1.37c1.79,0.25,3.82,0.24,5.86-0.25c4.12-0.96,7.22-3.39,9.11-5.29c0.96-0.96,1.64-1.83,2.1-2.43
									c0.44-0.62,0.66-0.97,0.63-1c-0.08-0.06-1.05,1.3-3,3.14c-1.94,1.8-4.99,4.1-8.97,5.02c-3.97,0.96-7.73,0.11-10.15-0.94
									C237.99,247.91,236.67,246.85,236.61,246.94z"/>
							</g>
						</g>
					</g>
				</g>
			</g>
			<g>
				<g>
					<g>
						<g>
							<g>
								<path class="st6" d="M265.69,280.23c0.12,0.09,0.85-0.75,1.11-2.07c0.26-1.32-0.1-2.38-0.24-2.34
									c-0.16,0.03-0.07,1.04-0.31,2.23C266.01,279.25,265.55,280.15,265.69,280.23z"/>
							</g>
						</g>
					</g>
				</g>
			</g>
			<g class="st13">
				<g>
					<g>
						<g>
							<g>
								<path d="M261.67,242.96c-0.41,4.05-2.35,7.99-5.52,10.55c-3.17,2.56-7.57,3.62-11.49,2.5c-3.92-1.12-7.17-4.51-7.85-8.53
									c2.76,1.26,5.57,2.53,8.57,2.98c6.4,0.97,13.23-2.26,16.54-7.81c-0.15,0.15-0.29,0.31-0.44,0.46"/>
							</g>
						</g>
					</g>
				</g>
			</g>
			<g class="st13">
				<g>
					<g>
						<g>
							<g>
								<path d="M272.95,268.56c0.81,4.06-0.7,8.49-3.83,11.21c-0.67,0.58-1.57,1.12-2.41,0.82c3.01-3.51,5.15-7.76,6.17-12.27"/>
							</g>
						</g>
					</g>
				</g>
			</g>
			<g>
				<path class="st7" d="M200.39,230.7l27.06,12.69c0,0,11.03-24.4,11.98-27.74c0.95-3.34,3.92-8.62,0.87-15.57
					c-3.05-6.96-10.73-10.83-15.84-9.04C212.53,195.23,200.39,230.7,200.39,230.7z"/>
			</g>
			<g>
				<path class="st7" d="M278.83,230.62c1.26,0,15.77,7.59,15.77,7.59l8.26-27.36c-12.33-8.22-24.94-16.76-32.15-18.7l6.27,21.77
					L278.83,230.62z"/>
			</g>
			<g>
				<g>
					<g>
						<g>
							<g>
								<path class="st10" d="M210.72,208.9"/>
							</g>
							<g>
								<path class="st10" d="M224.79,241.67c-5.12,8.42-8.7,13.26-8.7,13.26l45.95,27.99l-5.36,12.44l-59.6-24.53
									c0,0-5.87-6.05-3.8-12.78l9.5-26.23L224.79,241.67z"/>
							</g>
						</g>
					</g>
				</g>
			</g>
			<g>
				<g>
					<g>
						<g>
							<g>
								<g>
									<path class="st11" d="M204.91,259.21c0.11,0.14,2.28-1.68,5.5-2.86c3.21-1.21,6.04-1.24,6.03-1.42
										c0.03-0.13-2.9-0.36-6.23,0.89C206.88,257.04,204.8,259.12,204.91,259.21z"/>
								</g>
							</g>
						</g>
					</g>
				</g>
			</g>
			<g>
				<g>
					<path class="st6" d="M200.39,230.7c0.01-0.02,0.19,0.05,0.54,0.19c0.4,0.17,0.89,0.38,1.5,0.64c1.36,0.6,3.21,1.42,5.47,2.43
						c4.66,2.12,10.98,5,17.96,8.19c0.75,0.35,1.49,0.69,2.19,1.01l-0.34,0.12c3.12-6.43,5.86-12.19,7.8-16.35
						c0.94-2.03,1.7-3.69,2.26-4.91c0.25-0.54,0.45-0.98,0.61-1.33c0.14-0.3,0.23-0.46,0.24-0.45c0.02,0.01-0.04,0.17-0.15,0.49
						c-0.12,0.31-0.28,0.78-0.52,1.37c-0.47,1.18-1.19,2.88-2.12,4.98c-1.86,4.2-4.54,9.98-7.65,16.43l-0.11,0.23l-0.23-0.11
						c-0.7-0.32-1.44-0.66-2.19-1.01c-6.96-3.24-13.25-6.17-17.89-8.33c-2.23-1.06-4.06-1.94-5.4-2.58
						c-0.59-0.29-1.07-0.53-1.46-0.72C200.55,230.82,200.38,230.72,200.39,230.7z"/>
				</g>
			</g>
			<g>
				<g>
					<path class="st6" d="M277.16,205.87c0.03-0.02,0.26,0.44,0.63,1.29c0.36,0.85,0.81,2.11,1.22,3.71
						c0.87,3.19,1.54,7.71,1.86,12.73c0.29,5.02,0.18,9.58-0.13,12.86c-0.14,1.64-0.33,2.96-0.49,3.87c-0.17,0.91-0.28,1.4-0.32,1.4
						c-0.04-0.01,0.01-0.51,0.12-1.42c0.1-0.91,0.23-2.23,0.32-3.87c0.21-3.27,0.26-7.81-0.03-12.8c-0.32-4.99-0.93-9.49-1.7-12.67
						c-0.36-1.6-0.76-2.86-1.05-3.73C277.29,206.37,277.13,205.89,277.16,205.87z"/>
				</g>
			</g>
			<g>
				<g>
					<g>
						<g>
							<g>
								<path class="st10" d="M297.69,291.44l-11.46-5.48l-22.37-1.77l-1.82-1.27l-5.36,12.44c0,0,5.86,2.8,8.93,3.05l18.81-0.57
									l9.83,1.03L297.69,291.44z"/>
							</g>
						</g>
					</g>
				</g>
			</g>
		</g>
		<g>
			<g>
				<g>
					<g>
						<g>
							<g>
								<path class="st8" d="M283.33,147.87c0,0.06,0.78,0.16,2.02-0.03c1.24-0.18,2.94-0.71,4.57-1.76
									c1.62-1.05,2.81-2.38,3.48-3.44c0.68-1.06,0.91-1.81,0.85-1.83c-0.08-0.04-0.44,0.64-1.17,1.61
									c-0.73,0.97-1.9,2.2-3.46,3.21c-1.56,1-3.16,1.57-4.34,1.84C284.09,147.73,283.33,147.78,283.33,147.87z"/>
							</g>
						</g>
					</g>
				</g>
			</g>
			<g>
				<g>
					<g>
						<g>
							<g>
								<path class="st8" d="M280.4,134.58c-0.04,0.04,0.4,0.61,1.31,1.31c0.91,0.7,2.33,1.49,4.05,1.93
									c1.72,0.43,3.34,0.43,4.48,0.25c1.14-0.18,1.8-0.46,1.78-0.52c-0.02-0.18-2.8,0.62-6.12-0.25
									C282.56,136.47,280.5,134.44,280.4,134.58z"/>
							</g>
						</g>
					</g>
				</g>
			</g>
			<g>
				<g>
					<g>
						<g>
							<g>
								<path class="st8" d="M301.88,200.38c0,0.01,0.06,0,0.18-0.03c0.12-0.03,0.29-0.07,0.52-0.15c0.44-0.16,1.1-0.44,1.81-1
									c0.72-0.55,1.5-1.38,2.06-2.55c0.56-1.16,0.83-2.7,0.5-4.31c-0.16-0.8-0.46-1.62-0.94-2.38c-0.46-0.78-1.15-1.43-1.85-2.06
									c-0.69-0.63-1.44-1.26-1.91-2.07c-0.48-0.81-0.53-1.83-0.09-2.72c0.43-0.9,1.17-1.69,1.87-2.55
									c0.35-0.43,0.7-0.89,0.99-1.41c0.28-0.53,0.47-1.1,0.56-1.7c0.33-2.37-0.88-5.07-3.26-6.17c-1.2-0.53-2.44-0.55-3.55-0.82
									c-0.56-0.13-1.08-0.33-1.51-0.64c-0.42-0.32-0.73-0.76-0.87-1.26c-0.29-1.02-0.03-2.14,0.35-3.12
									c0.4-0.99,0.97-1.93,1.34-2.95c0.39-1,0.56-2.15,0.21-3.17c-0.33-1.02-1.04-1.82-1.8-2.4c-1.55-1.19-3.34-1.6-4.85-2.05
									c-1.52-0.43-2.87-0.95-3.83-1.74c-0.94-0.79-1.43-1.81-1.6-2.66c-0.17-0.86-0.01-1.55,0.19-1.96
									c0.2-0.42,0.39-0.59,0.36-0.61c0,0-0.22,0.14-0.46,0.56c-0.24,0.41-0.45,1.14-0.3,2.04c0.15,0.9,0.63,1.98,1.61,2.85
									c0.99,0.86,2.39,1.42,3.91,1.88c1.52,0.47,3.24,0.9,4.68,2.03c0.71,0.56,1.34,1.29,1.62,2.19c0.29,0.9,0.14,1.9-0.23,2.85
									c-0.36,0.96-0.92,1.88-1.36,2.93c-0.41,1.04-0.72,2.25-0.38,3.47c0.17,0.61,0.56,1.15,1.06,1.54
									c0.51,0.38,1.12,0.6,1.71,0.74c1.18,0.29,2.41,0.32,3.45,0.79c2.12,0.96,3.26,3.45,2.95,5.59c-0.08,0.54-0.25,1.05-0.5,1.52
									c-0.26,0.47-0.59,0.91-0.93,1.33c-0.68,0.85-1.45,1.65-1.93,2.67c-0.5,1.01-0.44,2.27,0.13,3.18
									c0.55,0.92,1.33,1.55,2.02,2.17c0.7,0.62,1.35,1.22,1.79,1.94c0.46,0.71,0.75,1.48,0.92,2.24c0.33,1.52,0.11,2.98-0.4,4.1
									c-0.51,1.13-1.24,1.96-1.92,2.51C302.88,200.15,301.84,200.31,301.88,200.38z"/>
							</g>
						</g>
					</g>
				</g>
			</g>
			<g>
				<g>
					<g>
						<g>
							<g>
								<g>
									<g>
										<path class="st10" d="M242.38,135.64l0.09-4.11l24.88-3.69c7.65-0.5,15.57,7.47,15.74,15.13
											c0.19,8.51,0.09,18.91-1.18,25.2c-2.54,12.65-12.37,13.88-12.37,13.88l-0.57,12.64l-28.18-0.79L242.38,135.64z"/>
									</g>
								</g>
							</g>
						</g>
					</g>
				</g>
			</g>
			<g>
				<g>
					<g>
						<g>
							<g>
								<g>
									<g>
										<g>
											<g>
												<g>
													<g>
														<g>
															<g>
																<g>
																	<g>
																		<path class="st6" d="M279.87,152.31c0,0.86-0.74,1.57-1.64,1.58c-0.9,0.01-1.63-0.68-1.62-1.54
																			c0-0.86,0.74-1.57,1.64-1.59C279.14,150.75,279.87,151.44,279.87,152.31z"/>
																	</g>
																</g>
															</g>
														</g>
													</g>
												</g>
											</g>
										</g>
									</g>
								</g>
							</g>
						</g>
					</g>
				</g>
			</g>
			<g>
				<g>
					<g>
						<g>
							<g>
								<g>
									<g>
										<g>
											<g>
												<g>
													<g>
														<g>
															<g>
																<g>
																	<g>
																		<g>
																			<path class="st6" d="M280.17,148.26c-0.21,0.2-1.41-0.76-3.17-0.83c-1.75-0.09-3.08,0.76-3.26,0.54
																				c-0.09-0.1,0.13-0.47,0.71-0.86c0.57-0.38,1.53-0.74,2.62-0.69c1.09,0.05,2,0.49,2.51,0.92
																				C280.11,147.77,280.28,148.17,280.17,148.26z"/>
																		</g>
																	</g>
																</g>
															</g>
														</g>
													</g>
												</g>
											</g>
										</g>
									</g>
								</g>
							</g>
						</g>
					</g>
				</g>
			</g>
			<g>
				<g>
					<g>
						<g>
							<g>
								<g>
									<g>
										<g>
											<g>
												<g>
													<g>
														<g>
															<g>
																<g>
																	<g>
																		<path class="st6" d="M263.61,151.66c0,0.86-0.74,1.57-1.64,1.58c-0.9,0.01-1.63-0.68-1.62-1.54
																			c0-0.86,0.74-1.57,1.64-1.59C262.89,150.11,263.61,150.8,263.61,151.66z"/>
																	</g>
																</g>
															</g>
														</g>
													</g>
												</g>
											</g>
										</g>
									</g>
								</g>
							</g>
						</g>
					</g>
				</g>
			</g>
			<g>
				<g>
					<g>
						<g>
							<g>
								<g>
									<g>
										<g>
											<g>
												<g>
													<g>
														<g>
															<g>
																<g>
																	<g>
																		<g>
																			<path class="st6" d="M262.88,147.89c-0.21,0.2-1.41-0.76-3.17-0.83c-1.75-0.09-3.08,0.76-3.26,0.54
																				c-0.09-0.1,0.13-0.47,0.71-0.86c0.57-0.39,1.53-0.74,2.62-0.69c1.09,0.05,2,0.49,2.51,0.92
																				C262.82,147.4,262.98,147.79,262.88,147.89z"/>
																		</g>
																	</g>
																</g>
															</g>
														</g>
													</g>
												</g>
											</g>
										</g>
									</g>
								</g>
							</g>
						</g>
					</g>
				</g>
			</g>
			<g>
				<g>
					<g>
						<g>
							<g>
								<g>
									<g>
										<g>
											<g>
												<g>
													<g>
														<g>
															<g>
																<g>
																	<g>
																		<path class="st6" d="M268.73,161.18c0-0.1,1.1-0.24,2.88-0.4c0.45-0.03,0.88-0.1,0.97-0.4
																			c0.12-0.32-0.05-0.81-0.25-1.34c-0.38-1.1-0.77-2.26-1.19-3.47c-1.65-4.94-2.82-9-2.62-9.06
																			c0.2-0.06,1.7,3.89,3.34,8.83c0.39,1.22,0.77,2.38,1.13,3.49c0.15,0.52,0.42,1.11,0.16,1.77
																			c-0.13,0.33-0.47,0.56-0.76,0.63c-0.29,0.08-0.54,0.07-0.77,0.07C269.84,161.32,268.73,161.28,268.73,161.18z"/>
																	</g>
																</g>
															</g>
														</g>
													</g>
												</g>
											</g>
										</g>
									</g>
								</g>
							</g>
						</g>
					</g>
				</g>
			</g>
			<g>
				<g>
					<g>
						<g>
							<g>
								<g>
									<g>
										<g>
											<g>
												<g>
													<g>
														<g>
															<g>
																<g>
																	<path class="st11" d="M269.54,182.07c0,0-9.02,0.16-17.31-5.29c0,0,3.94,9.09,17.17,8.46L269.54,182.07z"/>
																</g>
															</g>
														</g>
													</g>
												</g>
											</g>
										</g>
									</g>
								</g>
							</g>
						</g>
					</g>
				</g>
			</g>
			<g>
				<g>
					<g>
						<g>
							<g>
								<g>
									<g>
										<g>
											<g>
												<g>
													<g>
														<g>
															<g>
																<g>
																	<path class="st11" d="M267.82,165.38c-0.6-0.86-1.69-1.37-2.79-1.29c-0.77,0.05-1.55,0.39-2.04,0.99
																		c-0.49,0.6-0.62,1.48-0.22,2.09c0.45,0.69,1.43,0.88,2.28,0.68c0.85-0.2,1.59-0.73,2.3-1.25
																		c0.2-0.14,0.4-0.3,0.52-0.5c0.13-0.2,0.16-0.48,0.02-0.65"/>
																</g>
															</g>
														</g>
													</g>
												</g>
											</g>
										</g>
									</g>
								</g>
							</g>
						</g>
					</g>
				</g>
			</g>
			<g>
				<g>
					<g>
						<g>
							<g>
								<g>
									<g>
										<g>
											<g>
												<g>
													<g>
														<g>
															<g>
																<g>
																	<g>
																		<path class="st6" d="M263.51,162.18c0.29-0.01,0.21,1.9,1.79,3.32c1.57,1.42,3.62,1.29,3.62,1.56
																			c0.02,0.12-0.47,0.35-1.33,0.34c-0.84-0.01-2.06-0.33-3.03-1.19c-0.96-0.87-1.35-2-1.38-2.78
																			C263.15,162.63,263.38,162.17,263.51,162.18z"/>
																	</g>
																</g>
															</g>
														</g>
													</g>
												</g>
											</g>
										</g>
									</g>
								</g>
							</g>
						</g>
					</g>
				</g>
			</g>
			<g>
				<g>
					<g>
						<g>
							<g>
								<g>
									<g>
										<g>
											<g>
												<g>
													<g>
														<path class="st6" d="M263.62,141.02c-0.19,0.47-1.94,0.17-4.01,0.34c-2.08,0.12-3.76,0.66-4.02,0.22
															c-0.11-0.21,0.19-0.65,0.89-1.08c0.68-0.44,1.77-0.83,3.01-0.92c1.24-0.08,2.37,0.16,3.11,0.49
															C263.33,140.4,263.7,140.79,263.62,141.02z"/>
													</g>
												</g>
											</g>
										</g>
									</g>
								</g>
							</g>
						</g>
					</g>
				</g>
			</g>
			<g>
				<g>
					<g>
						<g>
							<g>
								<g>
									<g>
										<g>
											<g>
												<g>
													<g>
														<path class="st6" d="M279.73,143.15c-0.33,0.39-1.52-0.08-2.97-0.16c-1.45-0.13-2.7,0.16-2.97-0.27
															c-0.12-0.21,0.09-0.6,0.65-0.96c0.55-0.36,1.45-0.63,2.45-0.56c1,0.07,1.85,0.47,2.34,0.9
															C279.72,142.54,279.88,142.96,279.73,143.15z"/>
													</g>
												</g>
											</g>
										</g>
									</g>
								</g>
							</g>
						</g>
					</g>
				</g>
			</g>
			<g>
				<g>
					<g>
						<g>
							<g>
								<g>
									<g>
										<path class="st6" d="M286.36,127.53c-2.05,4.46-6.65,11.09-11.53,11.57c-4.88,0.48-9.94-1.8-12.82-5.77
											c-0.82,3.61-4.89,5.45-8.56,5.96c-2.59,0.36-5.32,0.33-7.73-0.7c-2.41-1.03-4.44-3.19-4.78-5.79
											c-0.33-2.6,3.5-8.87,6.08-9.3"/>
									</g>
								</g>
							</g>
						</g>
					</g>
				</g>
			</g>
			<g>
				<g>
					<g>
						<g>
							<g>
								<g>
									<g>
										<path class="st6" d="M246.62,192.62c-0.23,4.11-3.36,7.9-7.35,8.91c0.13,3.34-2.43,6.59-5.71,7.25
											c-3.28,0.66-6.89-1.35-8.06-4.48c-0.31-0.82-0.48-1.72-1.02-2.41c-1.25-1.58-3.68-1.27-5.59-1.89
											c-3.45-1.12-4.94-5.34-4.55-8.95c0.08-0.71,0.21-1.43,0.1-2.14c-0.21-1.45-1.35-2.55-2.19-3.75
											c-3.47-4.92-2.02-12.06,1.82-16.68c1.28-1.54,2.9-3.15,2.78-5.16c-0.07-1.12-0.68-2.12-1.09-3.16
											c-1.32-3.38-0.29-7.55,2.45-9.92c0.42-0.36,0.9-0.73,1.05-1.27c0.09-0.34,0.03-0.7-0.01-1.05
											c-0.62-5.33,3.66-10.74,8.99-11.36c0.32-0.04,0.65-0.06,0.94-0.21c0.82-0.43,0.84-1.55,0.95-2.47
											c0.28-2.42,2.16-6.95,4.01-8.53c5.14-4.39,10.12-0.82,11.9,0.85c0,0,3.52,17.45,2.84,20.7
											c-0.68,3.25-3.07,11.35-2.12,15.03c0.95,3.68,2.5,11.22,1.01,14.53C246.29,179.78,246.62,192.62,246.62,192.62z"/>
									</g>
								</g>
							</g>
						</g>
					</g>
				</g>
			</g>
			<g>
				<g>
					<g>
						<g>
							<g>
								<path class="st8" d="M227.39,136.5c-0.02,0.03,0.22,0.23,0.68,0.55c0.45,0.33,1.15,0.76,2.04,1.23
									c1.77,0.94,4.4,1.97,7.44,2.47c3.04,0.49,5.86,0.37,7.84,0.04c0.99-0.16,1.79-0.34,2.32-0.51c0.54-0.16,0.83-0.27,0.82-0.3
									c-0.02-0.09-1.22,0.21-3.19,0.43c-1.97,0.23-4.72,0.29-7.7-0.19c-2.98-0.49-5.57-1.43-7.36-2.28
									C228.48,137.09,227.44,136.42,227.39,136.5z"/>
							</g>
						</g>
					</g>
				</g>
			</g>
			<g>
				<g>
					<g>
						<g>
							<g>
								<path class="st8" d="M225.71,137.73c-0.03,0.01,0.1,0.38,0.37,1.04c0.13,0.33,0.31,0.73,0.56,1.17
									c0.24,0.44,0.49,0.96,0.86,1.49c0.67,1.08,1.6,2.29,2.75,3.52c1.17,1.21,2.58,2.43,4.2,3.51c1.63,1.06,3.31,1.87,4.88,2.48
									c1.59,0.57,3.06,0.96,4.32,1.14c0.62,0.13,1.2,0.15,1.7,0.2c0.5,0.06,0.94,0.06,1.29,0.05c0.71-0.01,1.1-0.03,1.1-0.07
									c0-0.11-1.57-0.09-4.03-0.57c-1.23-0.23-2.66-0.65-4.21-1.23c-1.53-0.62-3.16-1.43-4.76-2.46c-1.58-1.06-2.97-2.24-4.14-3.4
									c-1.15-1.19-2.09-2.34-2.79-3.38C226.41,139.14,225.81,137.68,225.71,137.73z"/>
							</g>
						</g>
					</g>
				</g>
			</g>
			<g>
				<g>
					<g>
						<g>
							<g>
								<path class="st8" d="M234.83,202.54c0-0.03-0.22,0.01-0.61-0.07c-0.39-0.08-0.96-0.31-1.47-0.88
									c-0.51-0.55-0.94-1.42-0.95-2.5c-0.04-1.08,0.28-2.29,0.66-3.62c0.35-1.32,0.82-2.92,0.27-4.58
									c-0.54-1.65-1.87-2.93-3.06-4.29c-0.59-0.68-1.18-1.41-1.52-2.25c-0.37-0.83-0.32-1.8,0.08-2.63
									c0.4-0.84,1.16-1.51,1.98-2.1c0.82-0.6,1.73-1.12,2.6-1.77c0.86-0.64,1.7-1.42,2.09-2.49c0.4-1.06,0.17-2.25-0.33-3.15
									c-0.99-1.81-2.53-3.13-2.89-4.87c-0.41-1.73,0.39-3.4,1.3-4.68c0.93-1.31,2.04-2.34,3.07-3.28c1.02-0.95,1.9-1.87,2.57-2.76
									c0.66-0.9,1.11-1.77,1.33-2.53c0.23-0.76,0.23-1.38,0.21-1.79c-0.05-0.41-0.1-0.62-0.12-0.62c-0.08,0,0.19,0.88-0.29,2.35
									c-0.47,1.47-1.88,3.26-3.96,5.07c-1.04,0.91-2.19,1.96-3.17,3.3c-0.49,0.67-0.93,1.43-1.23,2.28
									c-0.3,0.85-0.4,1.82-0.19,2.77c0.42,1.95,2.02,3.32,2.91,5.01c0.45,0.84,0.63,1.82,0.29,2.72c-0.32,0.9-1.07,1.62-1.9,2.23
									c-0.83,0.62-1.74,1.15-2.59,1.76c-0.84,0.61-1.67,1.33-2.14,2.31c-0.47,0.96-0.5,2.12-0.08,3.06
									c0.39,0.94,1.02,1.7,1.63,2.39c1.22,1.37,2.5,2.6,3,4.1c0.52,1.49,0.11,3.02-0.22,4.34c-0.36,1.33-0.66,2.6-0.59,3.74
									c0.04,1.14,0.54,2.08,1.11,2.63c0.57,0.58,1.19,0.79,1.6,0.84C234.62,202.63,234.83,202.54,234.83,202.54z"/>
							</g>
						</g>
					</g>
				</g>
			</g>
		</g>
		<g>
			<g>
				<g>
					<path class="st1" d="M362.17,247.29l-64.48,0.52c-2.09,0-4.09,1-4.4,3.07l-7.05,46.99h-33.21c-1.07,0-1.94,0.87-1.94,1.94
						c0,1.07,0.87,1.94,1.94,1.94h32.63h6.19h67.25l7.25-49.6C366.74,249.59,364.76,247.29,362.17,247.29z"/>
				</g>
				<g>
					<g>
						<path class="st6" d="M362.17,247.29c0,0,0.35-0.04,1.02,0.1c0.65,0.15,1.66,0.55,2.46,1.63c0.4,0.53,0.7,1.24,0.8,2.06
							c0.11,0.83-0.13,1.71-0.24,2.65c-0.27,1.9-0.58,4.09-0.93,6.54c-1.42,9.85-3.46,24.05-5.98,41.51l-0.02,0.17l-0.17,0
							c-27.45,0.02-63.52,0.04-102.91,0.06c-0.92,0-1.85,0-2.77,0c-0.43,0.02-1.02-0.01-1.47-0.28c-0.46-0.25-0.81-0.68-0.99-1.16
							c-0.39-0.98,0.08-2.19,1-2.68c0.44-0.27,1.03-0.29,1.45-0.27l1.36,0c3.63,0,7.23,0,10.78,0c7.1,0,14.01,0,20.68,0.01
							l-0.25,0.21c2.54-16.83,4.9-32.53,7.03-46.62c0.07-0.89,0.48-1.86,1.19-2.46c0.7-0.62,1.59-0.95,2.47-1.09
							c0.9-0.14,1.75-0.06,2.6-0.09c0.85-0.01,1.69-0.01,2.53-0.02c3.35-0.02,6.59-0.04,9.71-0.07c6.24-0.04,12.01-0.08,17.25-0.11
							c10.47-0.05,18.81-0.1,24.56-0.13c2.86-0.01,5.06-0.01,6.57-0.01c0.74,0,1.3,0.01,1.7,0.01
							C361.97,247.28,362.17,247.29,362.17,247.29s-0.19,0.02-0.58,0.03c-0.4,0.01-0.96,0.02-1.7,0.04
							c-1.51,0.02-3.72,0.05-6.57,0.09c-5.75,0.06-14.09,0.16-24.56,0.27c-5.24,0.05-11.01,0.11-17.25,0.17
							c-3.12,0.03-6.36,0.06-9.71,0.09c-0.84,0.01-1.68,0.02-2.53,0.02c-0.85,0.03-1.72-0.04-2.54,0.09
							c-0.82,0.13-1.63,0.44-2.25,0.99c-0.63,0.55-0.97,1.32-1.05,2.2c-2.1,14.09-4.44,29.79-6.96,46.63l-0.03,0.21h-0.22
							c-6.66,0-13.58,0-20.68,0.01c-3.55,0-7.14,0-10.78,0l-1.36,0c-0.48-0.01-0.84,0.01-1.2,0.21c-0.71,0.37-1.06,1.29-0.76,2.04
							c0.14,0.37,0.41,0.7,0.76,0.89c0.36,0.21,0.72,0.23,1.21,0.21c0.92,0,1.84,0,2.77,0c39.39,0.02,75.46,0.05,102.91,0.06
							l-0.2,0.17c2.59-17.45,4.69-31.64,6.15-41.48c0.37-2.46,0.7-4.64,0.98-6.54c0.11-0.95,0.36-1.82,0.26-2.61
							c-0.08-0.79-0.37-1.48-0.75-2c-0.76-1.07-1.75-1.48-2.38-1.64C362.52,247.28,362.17,247.31,362.17,247.29z"/>
					</g>
				</g>
			</g>
			<g>
				<circle class="st3" cx="327.19" cy="273.92" r="4.04"/>
			</g>
			<g>
				<g>
					<path class="st6" d="M288.85,301.32c0.09,0.02,2.14-11.95,4.58-26.72c2.44-14.78,4.34-26.77,4.25-26.78
						c-0.09-0.01-2.14,11.95-4.58,26.73C290.67,289.31,288.76,301.3,288.85,301.32z"/>
				</g>
			</g>
		</g>
	</g>
</g>
<g id="Picture">
	<g>
		<g>
			<g>
				<path class="st6" d="M463.73,214.91c0,0-0.02-0.6-0.02-1.74c-0.01-1.15-0.01-2.83-0.03-5.03c-0.01-4.4-0.03-10.85-0.06-19.05
					c-0.03-16.4-0.07-39.84-0.11-68.05l0.22,0.22c-30.26,0.01-66.39,0.03-105.09,0.04h-0.01l0.26-0.26
					c-0.01,34.15-0.02,66.28-0.03,93.87l-0.23-0.23c31.36,0.05,57.6,0.09,76.02,0.12c9.22,0.03,16.47,0.05,21.44,0.06
					c2.48,0.01,4.38,0.02,5.67,0.03c0.64,0.01,1.12,0.01,1.46,0.01C463.56,214.9,463.73,214.91,463.73,214.91s-0.16,0.01-0.48,0.01
					c-0.33,0-0.81,0.01-1.44,0.01c-1.29,0.01-3.17,0.02-5.63,0.03c-4.95,0.01-12.19,0.03-21.39,0.06
					c-18.46,0.03-44.75,0.07-76.17,0.12l-0.23,0l0-0.23c-0.01-27.59-0.02-59.72-0.03-93.87l0-0.26h0.26h0.01
					c38.7,0.01,74.83,0.03,105.09,0.04l0.22,0l0,0.22c-0.05,28.27-0.09,51.75-0.11,68.19c-0.02,8.18-0.04,14.61-0.06,19
					c-0.01,2.18-0.02,3.85-0.03,4.99C463.75,214.34,463.73,214.91,463.73,214.91z"/>
			</g>
		</g>
		<g>
			<g>
				<g>
					<g>
						<g>
							<g>
								<g>
									<rect x="365.49" y="126.38" class="st7" width="89.68" height="83.19"/>
								</g>
							</g>
						</g>
					</g>
				</g>
				<g class="st13">
					<g>
						<path d="M419.73,145.13c-3.56,0-6.45,2.77-6.45,6.19c0,3.42,2.89,6.19,6.45,6.19c3.56,0,6.45-2.77,6.45-6.19
							C426.18,147.9,423.29,145.13,419.73,145.13z"/>
					</g>
					<g>
						<path d="M448.21,132.92c-21.94-0.02-47.96-0.04-75.76-0.06c0.08-0.09-0.82,0.78-0.44,0.42v0.02v0.04v0.07v0.15v0.3v0.59
							l0,1.18V138c0,1.57,0,3.14,0,4.7c0,3.12,0,6.21,0,9.26c0,6.11,0.01,12.1,0.01,17.93c0.01,11.65,0.03,22.67,0.04,32.8v0.36
							l0.37,0c22.71-0.07,41.68-0.14,55.02-0.18c6.59-0.04,11.78-0.07,15.37-0.09c1.73-0.02,3.08-0.03,4.03-0.04
							c0.43-0.01,0.76-0.02,1.02-0.02c0.23-0.01,0.34-0.01,0.33-0.02c-0.01-0.01-0.13-0.01-0.37-0.02
							c-0.27-0.01-0.62-0.01-1.06-0.02c-0.97-0.01-2.34-0.02-4.1-0.04c-3.61-0.02-8.83-0.05-15.45-0.09
							c-4.91-0.02-10.58-0.04-16.93-0.06h37.9c0.01,0.14,0.01,0.23,0.02,0.23c0.01,0.01,0.01-0.1,0.02-0.3
							c0.01-0.24,0.01-0.54,0.02-0.93c0.01-0.87,0.02-2.1,0.04-3.68c0.02-3.28,0.05-8.03,0.1-14.05
							c0.05-12.21,0.11-29.59,0.19-50.46l0-0.35L448.21,132.92z M429.87,172.47l-12.33,14.53l-20.29-27.36l-24.43,42.17
							c0.01-9.89,0.03-20.61,0.04-31.93c0-5.83,0.01-11.81,0.01-17.93c0-3.06,0-6.15,0-9.26c0-1.56,0-3.12,0-4.7v-2.36v-1.18v-0.59
							v-0.18c27.49-0.02,53.22-0.04,74.98-0.06c0.08,20.62,0.14,37.8,0.19,49.88c0.04,6.06,0.07,10.83,0.09,14.13
							c0.02,1.61,0.03,2.86,0.04,3.74c0.01,0.4,0.02,0.72,0.02,0.97c0,0.04,0,0.05,0,0.08L429.87,172.47z"/>
					</g>
				</g>
			</g>
		</g>
		<g>
			<rect x="355.88" y="117.58" class="st6" width="5.51" height="5.51"/>
		</g>
		<g>
			<rect x="460.09" y="117.58" class="st6" width="5.51" height="5.51"/>
		</g>
		<g>
			<rect x="460.09" y="211.25" class="st6" width="5.51" height="5.51"/>
		</g>
		<g>
			<rect x="356.65" y="211.25" class="st6" width="5.51" height="5.51"/>
		</g>
		<g>
			<rect x="356.65" y="164.96" class="st6" width="5.51" height="5.51"/>
		</g>
		<g>
			<rect x="407.75" y="212.16" class="st6" width="5.51" height="5.51"/>
		</g>
		<g>
			<rect x="460.98" y="162.21" class="st6" width="5.51" height="5.51"/>
		</g>
		<g>
			<rect x="407.77" y="118.08" class="st6" width="5.51" height="5.51"/>
		</g>
	</g>
</g>
<g id="Plant">
	<g>
		<g>
			<g>
				<g>
					<g>
						<path class="st6" d="M624.35,376.45c-0.1,0.12-0.93-0.38-1.86-1.12c-0.93-0.74-1.6-1.44-1.5-1.57
							c0.1-0.12,0.93,0.38,1.86,1.12C623.78,375.63,624.45,376.33,624.35,376.45z"/>
					</g>
				</g>
			</g>
			<g>
				<g>
					<g>
						<path class="st8" d="M649.62,338.69c0.15-3.53,0.25-7.15-0.86-10.5c-1.11-3.35-3.7-6.43-7.16-7.15
							c-3.95-0.82-7.99,1.67-10.2,5.04c-2.21,3.37-2.97,7.46-3.63,11.44c-4.5,27.41-6.16,55.29-4.95,83.04l16.15,2.27
							C646.07,393.84,648.33,368.5,649.62,338.69z"/>
					</g>
				</g>
				<g>
					<g>
						<g>
							<path class="st6" d="M639.36,320.91c0.01,0-0.02,0.09-0.07,0.26c-0.07,0.2-0.16,0.44-0.27,0.73
								c-0.26,0.68-0.62,1.61-1.08,2.79c-0.23,0.61-0.52,1.27-0.77,2.02c-0.24,0.76-0.5,1.57-0.78,2.45
								c-0.28,0.88-0.59,1.82-0.91,2.81c-0.26,1.01-0.54,2.08-0.83,3.2c-1.22,4.48-2.23,9.92-3.12,15.99
								c-0.87,6.07-1.45,12.8-1.9,19.87c-0.83,14.15-0.96,27-1.32,36.29c-0.17,4.65-0.33,8.4-0.51,11c-0.09,1.26-0.15,2.26-0.2,2.99
								c-0.03,0.31-0.05,0.57-0.07,0.78c-0.02,0.17-0.03,0.26-0.04,0.26c-0.01,0-0.02-0.09-0.02-0.27c0-0.21,0.01-0.47,0.01-0.78
								c0.02-0.73,0.05-1.73,0.09-2.99c0.11-2.6,0.21-6.36,0.33-11c0.26-9.29,0.32-22.14,1.15-36.31
								c0.45-7.08,1.04-13.82,1.95-19.91c0.92-6.08,1.98-11.54,3.25-16.02c0.31-1.12,0.6-2.19,0.88-3.2
								c0.34-0.99,0.65-1.93,0.95-2.81c0.3-0.87,0.57-1.69,0.83-2.44c0.26-0.75,0.57-1.4,0.82-2.01c0.5-1.16,0.89-2.08,1.18-2.75
								c0.13-0.29,0.23-0.52,0.32-0.71C639.3,320.98,639.35,320.91,639.36,320.91z"/>
						</g>
					</g>
				</g>
				<g>
					<g>
						<g>
							<path class="st6" d="M640.85,320.92c0,0,0.99,1.02,1.97,3.34c1.02,2.31,1.65,5.97,1.47,10.45
								c-0.43,8.93-1.23,21.23-2.29,34.81c-1.07,13.58-2.25,25.86-3.21,34.73c-0.48,4.44-0.89,8.03-1.19,10.5
								c-0.15,1.2-0.28,2.15-0.37,2.85c-0.04,0.3-0.08,0.54-0.11,0.74c-0.03,0.17-0.05,0.25-0.06,0.25c-0.01,0-0.01-0.09,0-0.26
								c0.01-0.2,0.03-0.45,0.05-0.75c0.06-0.7,0.15-1.66,0.26-2.86c0.24-2.54,0.59-6.12,1.01-10.52
								c0.85-8.88,1.97-21.16,3.04-34.74c1.06-13.57,1.93-25.88,2.46-34.77c0.23-4.44-0.34-8.05-1.27-10.35
								C641.71,322.03,640.78,320.96,640.85,320.92z"/>
						</g>
					</g>
				</g>
				<g>
					<g>
						<g>
							<path class="st6" d="M652.05,362.73c-0.05,0.15-1.42-0.2-3.06-0.79c-1.64-0.59-2.92-1.18-2.87-1.34
								c0.05-0.15,1.42,0.2,3.06,0.79C650.82,361.98,652.11,362.58,652.05,362.73z"/>
						</g>
					</g>
				</g>
				<g>
					<g>
						<g>
							<path class="st6" d="M654,346.26c0.07,0.15-1.24,0.87-2.91,1.62c-1.67,0.75-3.08,1.24-3.15,1.09
								c-0.07-0.15,1.24-0.87,2.91-1.62C652.52,346.61,653.93,346.12,654,346.26z"/>
						</g>
					</g>
				</g>
				<g>
					<g>
						<g>
							<path class="st6" d="M652.99,332.83c-0.01,0.16-1.09,0.21-2.41,0.12c-1.32-0.09-2.38-0.29-2.37-0.45
								c0.01-0.16,1.09-0.21,2.41-0.12C651.94,332.47,653,332.67,652.99,332.83z"/>
						</g>
					</g>
				</g>
				<g>
					<g>
						<g>
							<path class="st6" d="M636.32,324.22c-0.14,0.08-0.84-0.8-1.58-1.97c-0.74-1.17-1.23-2.19-1.09-2.28
								c0.13-0.08,0.84,0.8,1.58,1.97C635.97,323.11,636.45,324.13,636.32,324.22z"/>
						</g>
					</g>
				</g>
				<g>
					<g>
						<g>
							<path class="st6" d="M630.81,332.34c0,0.16-1.03,0.27-2.29,0.24c-1.26-0.03-2.29-0.18-2.28-0.34c0-0.16,1.03-0.27,2.29-0.24
								C629.79,332.03,630.82,332.18,630.81,332.34z"/>
						</g>
					</g>
				</g>
				<g>
					<g>
						<g>
							<path class="st6" d="M626.86,348.6c-0.06,0.15-1.14-0.15-2.41-0.66c-1.27-0.51-2.26-1.05-2.2-1.2
								c0.06-0.15,1.14,0.15,2.41,0.66C625.93,347.91,626.92,348.45,626.86,348.6z"/>
						</g>
					</g>
				</g>
				<g>
					<g>
						<g>
							<path class="st6" d="M626.43,362.27c0.03,0.16-0.89,0.48-2.06,0.73c-1.17,0.24-2.14,0.32-2.17,0.16
								c-0.03-0.16,0.89-0.48,2.06-0.73C625.43,362.19,626.4,362.11,626.43,362.27z"/>
						</g>
					</g>
				</g>
				<g>
					<g>
						<g>
							<path class="st6" d="M624.57,384.63c0.03,0.16-0.95,0.46-2.18,0.68c-1.23,0.22-2.26,0.27-2.28,0.12
								c-0.03-0.16,0.95-0.46,2.18-0.68C623.52,384.53,624.55,384.48,624.57,384.63z"/>
						</g>
					</g>
				</g>
				<g>
					<g>
						<g>
							<path class="st6" d="M623.34,396.98c0.07,0.14-0.74,0.72-1.82,1.29c-1.08,0.57-2.01,0.92-2.09,0.78
								c-0.07-0.14,0.74-0.72,1.82-1.29C622.33,397.19,623.26,396.84,623.34,396.98z"/>
						</g>
					</g>
				</g>
				<g>
					<g>
						<g>
							<path class="st6" d="M633.42,410.99c-0.14,0.08-0.85-0.9-1.59-2.19c-0.74-1.29-1.22-2.4-1.09-2.48
								c0.14-0.08,0.85,0.9,1.59,2.19C633.07,409.8,633.56,410.91,633.42,410.99z"/>
						</g>
					</g>
				</g>
				<g>
					<g>
						<g>
							<path class="st6" d="M636.33,387.71c0.11,0.11-0.68,1.07-1.77,2.14c-1.09,1.07-2.06,1.84-2.17,1.72
								c-0.11-0.11,0.68-1.07,1.77-2.14C635.24,388.36,636.21,387.59,636.33,387.71z"/>
						</g>
					</g>
				</g>
				<g>
					<g>
						<g>
							<path class="st6" d="M635.68,375.49c-0.12,0.11-0.85-0.49-1.64-1.34c-0.79-0.85-1.33-1.63-1.22-1.74
								c0.12-0.11,0.85,0.49,1.64,1.34C635.26,374.6,635.8,375.38,635.68,375.49z"/>
						</g>
					</g>
				</g>
				<g>
					<g>
						<g>
							<path class="st6" d="M637.68,359.88c0.12,0.11-0.54,1.04-1.47,2.08c-0.93,1.04-1.78,1.8-1.9,1.69
								c-0.12-0.11,0.54-1.04,1.47-2.08C636.71,360.53,637.56,359.77,637.68,359.88z"/>
						</g>
					</g>
				</g>
				<g>
					<g>
						<g>
							<path class="st6" d="M638.81,348.55c-0.11,0.11-1.03-0.61-2.05-1.61c-1.02-1.01-1.76-1.91-1.65-2.03
								c0.11-0.11,1.03,0.61,2.05,1.61C638.18,347.53,638.92,348.44,638.81,348.55z"/>
						</g>
					</g>
				</g>
				<g>
					<g>
						<g>
							<path class="st6" d="M641.02,333.23c0.14,0.08-0.32,1.11-1.03,2.29c-0.71,1.18-1.39,2.08-1.53,2
								c-0.14-0.08,0.32-1.11,1.03-2.29C640.2,334.05,640.88,333.15,641.02,333.23z"/>
						</g>
					</g>
				</g>
				<g>
					<g>
						<g>
							<path class="st6" d="M645.18,319.04c0.14,0.08-0.27,1.1-0.91,2.29c-0.64,1.19-1.28,2.1-1.42,2.02
								c-0.14-0.08,0.27-1.1,0.91-2.3C644.4,319.87,645.04,318.97,645.18,319.04z"/>
						</g>
					</g>
				</g>
				<g>
					<g>
						<g>
							<path class="st6" d="M649.9,325.49c0.07,0.14-0.58,0.6-1.44,1.01c-0.87,0.41-1.62,0.63-1.69,0.49
								c-0.07-0.14,0.58-0.6,1.44-1.01C649.07,325.56,649.83,325.35,649.9,325.49z"/>
						</g>
					</g>
				</g>
				<g>
					<g>
						<g>
							<path class="st6" d="M650.01,376.46c-0.03,0.15-1.5-0.05-3.16-0.77c-1.67-0.71-2.83-1.62-2.74-1.75
								c0.09-0.14,1.35,0.54,2.97,1.22C648.69,375.85,650.05,376.3,650.01,376.46z"/>
						</g>
					</g>
				</g>
				<g>
					<g>
						<g>
							<path class="st6" d="M648.08,387.25c0.03,0.16-0.94,0.48-2.17,0.71c-1.23,0.24-2.25,0.3-2.28,0.15
								c-0.03-0.16,0.94-0.48,2.17-0.71C647.03,387.16,648.05,387.1,648.08,387.25z"/>
						</g>
					</g>
				</g>
				<g>
					<g>
						<g>
							<path class="st6" d="M645.71,405.76c-0.09,0.12-1.33-0.73-2.46-2.16c-1.14-1.43-1.68-2.82-1.54-2.89
								c0.15-0.08,0.9,1.15,1.99,2.53C644.79,404.62,645.82,405.63,645.71,405.76z"/>
						</g>
					</g>
				</g>
				<g>
					<g>
						<g>
							<path class="st6" d="M619.75,414.23c-0.1-0.12,0.55-0.85,1.47-1.63c0.91-0.78,1.74-1.32,1.84-1.19
								c0.1,0.12-0.55,0.85-1.47,1.63C620.68,413.81,619.85,414.35,619.75,414.23z"/>
						</g>
					</g>
				</g>
			</g>
		</g>
		<g>
			<g>
				<path class="st8" d="M612.28,373.83c-1.05-3.28-3.02-7.11-6.47-7.16c-2.05-0.03-3.89,1.44-4.85,3.24
					c-0.96,1.81-1.37,3.9-1.31,5.94c0.39,13.51,2.73,28.96,7.41,43.03h12.61C619.51,403.25,617.05,388.72,612.28,373.83z"/>
			</g>
		</g>
		<g>
			<g>
				<path class="st8" d="M589.47,353.16c-1.76-7.05-7.02-10.86-13.13-11.21c-5.57,0.98-7.74,6.47-8.4,12.09
					c-0.66,5.62,1.08,11.22,2.81,16.61c5.53,17.31,11.07,34.62,16.6,51.93c5.23-0.57,10.46-1.14,15.69-1.71
					C598.08,397.67,595.23,376.17,589.47,353.16z"/>
			</g>
		</g>
		<g>
			<g>
				<g>
					<path class="st6" d="M605.81,366.67c0.05,0.04-0.52,0.57-1.07,1.78c-0.55,1.22-0.81,3.18-0.59,5.58
						c0.24,2.4,0.52,5.28,0.92,8.45c0.41,3.17,0.98,6.64,1.69,10.26c1.43,7.25,3.03,13.75,4.05,18.49c0.52,2.37,0.91,4.29,1.15,5.62
						c0.1,0.61,0.19,1.12,0.26,1.54c0.05,0.35,0.07,0.54,0.05,0.54c-0.02,0-0.08-0.18-0.17-0.52c-0.1-0.41-0.22-0.91-0.37-1.52
						c-0.34-1.4-0.78-3.29-1.33-5.58c-1.12-4.71-2.79-11.2-4.22-18.47c-0.71-3.63-1.27-7.12-1.65-10.31
						c-0.2-1.59-0.33-3.11-0.46-4.53c-0.12-1.41-0.27-2.73-0.34-3.95c-0.17-2.43,0.16-4.46,0.79-5.7
						C605.18,367.13,605.81,366.67,605.81,366.67z"/>
				</g>
			</g>
		</g>
		<g>
			<g>
				<g>
					<path class="st6" d="M576.57,341.5c0.05,0.05-0.84,0.8-1.9,2.55c-1.06,1.73-2.18,4.56-2.39,8.21
						c-0.24,3.65,0.57,7.98,1.94,12.63c1.38,4.67,2.89,9.79,4.48,15.17c3.13,10.75,5.96,20.49,8.03,27.6
						c0.99,3.49,1.79,6.34,2.37,8.38c0.26,0.95,0.46,1.71,0.62,2.29c0.13,0.52,0.2,0.8,0.18,0.81c-0.02,0.01-0.12-0.26-0.29-0.78
						c-0.18-0.57-0.42-1.32-0.72-2.26c-0.62-2.03-1.48-4.86-2.55-8.33c-2.11-7.11-5-16.82-8.19-27.56
						c-1.57-5.39-3.07-10.52-4.44-15.19c-1.35-4.67-2.13-9.08-1.84-12.8c0.26-3.72,1.47-6.58,2.6-8.3
						C575.62,342.19,576.57,341.5,576.57,341.5z"/>
				</g>
			</g>
		</g>
		<g>
			<g>
				<g>
					<path class="st6" d="M599.62,419.18c-0.02,0.01-0.14-0.25-0.35-0.75c-0.21-0.5-0.54-1.24-0.89-2.21
						c-0.75-1.93-1.71-4.77-2.7-8.33c-1-3.56-1.98-7.86-2.92-12.65c-0.91-4.8-1.91-10.07-2.95-15.61
						c-1.09-5.52-2.31-10.75-3.72-15.41c-1.41-4.66-2.98-8.77-4.57-12.09c-1.58-3.33-3.09-5.9-4.23-7.62
						c-0.54-0.88-1.03-1.51-1.32-1.97c-0.3-0.45-0.45-0.69-0.44-0.71c0.02-0.01,0.2,0.21,0.53,0.64c0.32,0.44,0.84,1.05,1.41,1.92
						c1.2,1.69,2.77,4.25,4.41,7.57c1.65,3.32,3.27,7.43,4.72,12.11c1.45,4.68,2.68,9.92,3.77,15.46
						c1.03,5.54,2.01,10.81,2.91,15.62c0.92,4.79,1.85,9.08,2.8,12.65c0.94,3.57,1.83,6.42,2.52,8.36c0.32,0.98,0.62,1.72,0.79,2.24
						C599.56,418.9,599.64,419.17,599.62,419.18z"/>
				</g>
			</g>
		</g>
		<g>
			<g>
				<g>
					<path class="st6" d="M571.03,368.05c0.04,0.15-0.82,0.5-1.91,0.76c-1.09,0.26-2,0.35-2.04,0.2c-0.04-0.15,0.82-0.49,1.91-0.76
						C570.08,367.98,570.99,367.9,571.03,368.05z"/>
				</g>
			</g>
		</g>
		<g>
			<g>
				<g>
					<path class="st6" d="M569.37,357.34c-0.01,0.16-1.19,0.23-2.65,0.29c-1.45,0.06-2.64,0.08-2.66-0.08
						c-0.02-0.16,1.16-0.44,2.64-0.5C568.18,356.99,569.38,357.19,569.37,357.34z"/>
				</g>
			</g>
		</g>
		<g>
			<g>
				<g>
					<path class="st6" d="M571.14,347.56c-0.1,0.12-0.96-0.43-1.9-1.24c-0.95-0.8-1.63-1.56-1.53-1.68c0.1-0.12,0.96,0.43,1.9,1.24
						C570.55,346.69,571.24,347.44,571.14,347.56z"/>
				</g>
			</g>
		</g>
		<g>
			<g>
				<g>
					<path class="st6" d="M575.92,338.51c0.16,0.04,0.12,0.8,0.09,1.72c-0.03,0.92-0.03,1.69-0.19,1.71
						c-0.15,0.03-0.42-0.74-0.39-1.73C575.46,339.22,575.77,338.47,575.92,338.51z"/>
				</g>
			</g>
		</g>
		<g>
			<g>
				<g>
					<path class="st6" d="M585.7,342.77c0.13,0.09-0.25,0.86-0.86,1.73c-0.6,0.86-1.2,1.49-1.33,1.4c-0.13-0.09,0.25-0.86,0.86-1.73
						C584.98,343.31,585.57,342.68,585.7,342.77z"/>
				</g>
			</g>
		</g>
		<g>
			<g>
				<g>
					<path class="st6" d="M592.05,353.8c0.06,0.15-0.75,0.62-1.81,1.05c-1.06,0.43-1.97,0.66-2.03,0.52
						c-0.06-0.15,0.75-0.62,1.81-1.05C591.08,353.88,591.99,353.65,592.05,353.8z"/>
				</g>
			</g>
		</g>
		<g>
			<g>
				<g>
					<path class="st6" d="M595.9,365.15c0.06,0.14-1.01,0.75-2.49,1.09c-1.48,0.34-2.71,0.25-2.71,0.09
						c-0.01-0.16,1.17-0.33,2.59-0.66C594.7,365.35,595.84,364.99,595.9,365.15z"/>
				</g>
			</g>
		</g>
		<g>
			<g>
				<g>
					<path class="st6" d="M578.22,361.92c-0.15-0.05-0.04-0.83,0.25-1.75c0.29-0.92,0.64-1.63,0.8-1.58
						c0.15,0.05,0.04,0.83-0.25,1.75C578.73,361.26,578.37,361.97,578.22,361.92z"/>
				</g>
			</g>
		</g>
		<g>
			<g>
				<g>
					<path class="st6" d="M580.69,376.17c-0.15-0.06,0.17-1.12,0.71-2.36c0.54-1.24,1.09-2.19,1.24-2.13
						c0.15,0.06-0.17,1.12-0.71,2.36C581.39,375.28,580.84,376.23,580.69,376.17z"/>
				</g>
			</g>
		</g>
		<g>
			<g>
				<g>
					<path class="st6" d="M574.6,380.07c-0.06,0.15-1.06-0.12-2.26-0.5c-1.2-0.38-2.17-0.72-2.14-0.88
						c0.03-0.15,1.08-0.06,2.31,0.33C573.74,379.4,574.66,379.92,574.6,380.07z"/>
				</g>
			</g>
		</g>
		<g>
			<g>
				<g>
					<path class="st6" d="M578.11,391.68c0.09,0.13-0.58,0.77-1.5,1.43c-0.92,0.66-1.74,1.09-1.84,0.96
						c-0.09-0.13,0.58-0.77,1.5-1.43C577.19,391.98,578.02,391.55,578.11,391.68z"/>
				</g>
			</g>
		</g>
		<g>
			<g>
				<g>
					<path class="st6" d="M580.93,403.26c0.04,0.15-0.79,0.49-1.86,0.75c-1.06,0.26-1.96,0.34-1.99,0.19
						c-0.04-0.15,0.79-0.49,1.86-0.75C580,403.19,580.89,403.1,580.93,403.26z"/>
				</g>
			</g>
		</g>
		<g>
			<g>
				<g>
					<path class="st6" d="M596.21,374.82c0.08,0.13-0.63,0.7-1.67,1.09c-1.03,0.39-1.94,0.43-1.97,0.28
						c-0.03-0.16,0.78-0.45,1.77-0.82C595.33,375,596.13,374.68,596.21,374.82z"/>
				</g>
			</g>
		</g>
		<g>
			<g>
				<g>
					<path class="st6" d="M598.4,392.83c-0.07,0.14-0.91-0.11-1.89-0.57c-0.98-0.46-1.71-0.95-1.65-1.09
						c0.07-0.14,0.91,0.11,1.89,0.57C597.73,392.2,598.46,392.69,598.4,392.83z"/>
				</g>
			</g>
		</g>
		<g>
			<g>
				<g>
					<path class="st6" d="M602.25,405.72c-0.06,0.15-1.18-0.15-2.5-0.67c-1.32-0.52-2.35-1.06-2.29-1.21
						c0.06-0.15,1.18,0.15,2.5,0.67C601.29,405.03,602.31,405.57,602.25,405.72z"/>
				</g>
			</g>
		</g>
		<g>
			<g>
				<g>
					<path class="st6" d="M581.54,415.82c-0.08-0.15,0.95-0.84,2.14-1.78c1.19-0.93,2.11-1.77,2.23-1.66
						c0.12,0.1-0.64,1.14-1.87,2.11C582.8,415.47,581.61,415.96,581.54,415.82z"/>
				</g>
			</g>
		</g>
		<g>
			<g>
				<g>
					<path class="st6" d="M591.74,409.27c-0.16,0.02-0.39-0.85-0.78-1.85c-0.39-1.01-0.8-1.8-0.67-1.9c0.12-0.09,0.79,0.6,1.21,1.69
						C591.92,408.29,591.89,409.25,591.74,409.27z"/>
				</g>
			</g>
		</g>
		<g>
			<g>
				<g>
					<path class="st6" d="M589.03,393.76c-0.09,0.13-0.75-0.18-1.47-0.7c-0.72-0.52-1.23-1.04-1.13-1.17
						c0.09-0.13,0.75,0.18,1.47,0.7C588.62,393.11,589.13,393.63,589.03,393.76z"/>
				</g>
			</g>
		</g>
		<g>
			<g>
				<g>
					<path class="st6" d="M612.79,369.47c0.09,0.13-0.55,0.76-1.43,1.42c-0.89,0.65-1.68,1.08-1.77,0.95
						c-0.09-0.13,0.55-0.76,1.43-1.42C611.9,369.77,612.7,369.34,612.79,369.47z"/>
				</g>
			</g>
		</g>
		<g>
			<g>
				<g>
					<path class="st6" d="M616.37,379.26c0.01,0.15-0.99,0.37-2.23,0.23c-1.24-0.13-2.18-0.55-2.13-0.7c0.05-0.16,1.01,0,2.19,0.13
						C615.39,379.04,616.36,379.09,616.37,379.26z"/>
				</g>
			</g>
		</g>
		<g>
			<g>
				<g>
					<path class="st6" d="M600.98,381.45c0.03,0.15-0.89,0.49-2.1,0.56c-1.2,0.08-2.17-0.12-2.15-0.28c0.01-0.16,0.96-0.22,2.11-0.3
						C600,381.37,600.95,381.29,600.98,381.45z"/>
				</g>
			</g>
		</g>
		<g>
			<g>
				<g>
					<path class="st6" d="M602.3,372.2c-0.01,0.15-0.95,0.18-1.98-0.3c-1.03-0.47-1.62-1.2-1.52-1.31c0.11-0.12,0.82,0.36,1.76,0.78
						C601.5,371.81,602.32,372.03,602.3,372.2z"/>
				</g>
			</g>
		</g>
		<g>
			<g>
				<g>
					<path class="st6" d="M617.69,389.77c-0.08,0.13-1.05-0.32-2.15-1.01c-1.1-0.69-1.93-1.37-1.84-1.5
						c0.08-0.13,1.05,0.32,2.15,1.01C616.95,388.96,617.78,389.63,617.69,389.77z"/>
				</g>
			</g>
		</g>
		<g>
			<g>
				<g>
					<rect x="573.13" y="417.24" class="st7" width="82.12" height="14.55"/>
				</g>
			</g>
			<g>
				<g>
					<polygon class="st7" points="579.27,428.9 589.25,472.4 638.19,472.4 649.12,428.9 					"/>
				</g>
			</g>
			<g>
				<g>
					<g>
						<path class="st6" d="M655.2,431.81c0,0.16-18.52,0.29-41.37,0.29c-22.85,0-41.37-0.13-41.37-0.29
							c0-0.16,18.52-0.29,41.37-0.29C636.68,431.52,655.2,431.65,655.2,431.81z"/>
					</g>
				</g>
			</g>
		</g>
		<g>
			<g>
				<g>
					<path class="st6" d="M609.54,381.77c-0.14,0.08-0.7-0.57-1.25-1.46c-0.56-0.89-0.9-1.68-0.76-1.77
						c0.14-0.08,0.7,0.57,1.25,1.46C609.33,380.89,609.67,381.69,609.54,381.77z"/>
				</g>
			</g>
		</g>
		<g>
			<g>
				<g>
					<path class="st6" d="M609.57,393.48c-0.15-0.05,0.04-1.04,0.43-2.21c0.39-1.17,0.83-2.08,0.98-2.03
						c0.15,0.05-0.04,1.04-0.43,2.21C610.16,392.62,609.72,393.53,609.57,393.48z"/>
				</g>
			</g>
		</g>
		<g>
			<g>
				<g>
					<path class="st6" d="M613.58,405.77c-0.14,0.07-0.76-0.91-1.37-2.19c-0.61-1.28-0.99-2.38-0.85-2.44
						c0.14-0.07,0.76,0.91,1.37,2.2C613.34,404.61,613.72,405.7,613.58,405.77z"/>
				</g>
			</g>
		</g>
		<g>
			<g>
				<g>
					<path class="st6" d="M604.9,415.66c-0.12-0.1,0.37-0.87,1.09-1.7c0.72-0.84,1.41-1.43,1.53-1.32c0.12,0.1-0.37,0.87-1.09,1.7
						C605.71,415.18,605.02,415.77,604.9,415.66z"/>
				</g>
			</g>
		</g>
		<g>
			<g>
				<g>
					<path class="st6" d="M603.08,397.71c-0.03,0.16-0.82,0.15-1.76-0.02c-0.95-0.17-1.69-0.43-1.66-0.59
						c0.03-0.16,0.82-0.15,1.76,0.02C602.36,397.29,603.11,397.55,603.08,397.71z"/>
				</g>
			</g>
		</g>
	</g>
</g>
</svg>
